<?xml version="1.0" encoding="utf-8" standalone="no"?>
<!DOCTYPE svg PUBLIC "-//W3C//DTD SVG 1.1//EN"
  "http://www.w3.org/Graphics/SVG/1.1/DTD/svg11.dtd">
<svg xmlns:xlink="http://www.w3.org/1999/xlink" width="1080pt" height="720pt" viewBox="0 0 1080 720" xmlns="http://www.w3.org/2000/svg" version="1.1">
 <metadata>
  <rdf:RDF xmlns:dc="http://purl.org/dc/elements/1.1/" xmlns:cc="http://creativecommons.org/ns#" xmlns:rdf="http://www.w3.org/1999/02/22-rdf-syntax-ns#">
   <cc:Work>
    <dc:type rdf:resource="http://purl.org/dc/dcmitype/StillImage"/>
    <dc:date>2024-05-19T22:49:49.220795</dc:date>
    <dc:format>image/svg+xml</dc:format>
    <dc:creator>
     <cc:Agent>
      <dc:title>Matplotlib v3.8.4, https://matplotlib.org/</dc:title>
     </cc:Agent>
    </dc:creator>
   </cc:Work>
  </rdf:RDF>
 </metadata>
 <defs>
  <style type="text/css">*{stroke-linejoin: round; stroke-linecap: butt}</style>
 </defs>
 <g id="figure_1">
  <g id="patch_1">
   <path d="M 0 720 
L 1080 720 
L 1080 0 
L 0 0 
z
" style="fill: #ffffff"/>
  </g>
  <g id="axes_1">
   <g id="patch_2">
    <path d="M 135 640.8 
L 972 640.8 
L 972 86.4 
L 135 86.4 
z
" style="fill: #ffffff"/>
   </g>
   <g id="matplotlib.axis_1">
    <g id="xtick_1">
     <g id="line2d_1">
      <path d="M 233.117225 640.8 
L 233.117225 86.4 
" clip-path="url(#pdc6f0e3e30)" style="fill: none; stroke: #b0b0b0; stroke-width: 0.8; stroke-linecap: square"/>
     </g>
     <g id="line2d_2">
      <defs>
       <path id="ma1a1a1eaed" d="M 0 0 
L 0 3.5 
" style="stroke: #000000; stroke-width: 0.8"/>
      </defs>
      <g>
       <use xlink:href="#ma1a1a1eaed" x="233.117225" y="640.8" style="stroke: #000000; stroke-width: 0.8"/>
      </g>
     </g>
     <g id="text_1">
      <!-- 2500 -->
      <g transform="translate(220.392225 655.398438) scale(0.1 -0.1)">
       <defs>
        <path id="DejaVuSans-32" d="M 1228 531 
L 3431 531 
L 3431 0 
L 469 0 
L 469 531 
Q 828 903 1448 1529 
Q 2069 2156 2228 2338 
Q 2531 2678 2651 2914 
Q 2772 3150 2772 3378 
Q 2772 3750 2511 3984 
Q 2250 4219 1831 4219 
Q 1534 4219 1204 4116 
Q 875 4013 500 3803 
L 500 4441 
Q 881 4594 1212 4672 
Q 1544 4750 1819 4750 
Q 2544 4750 2975 4387 
Q 3406 4025 3406 3419 
Q 3406 3131 3298 2873 
Q 3191 2616 2906 2266 
Q 2828 2175 2409 1742 
Q 1991 1309 1228 531 
z
" transform="scale(0.015625)"/>
        <path id="DejaVuSans-35" d="M 691 4666 
L 3169 4666 
L 3169 4134 
L 1269 4134 
L 1269 2991 
Q 1406 3038 1543 3061 
Q 1681 3084 1819 3084 
Q 2600 3084 3056 2656 
Q 3513 2228 3513 1497 
Q 3513 744 3044 326 
Q 2575 -91 1722 -91 
Q 1428 -91 1123 -41 
Q 819 9 494 109 
L 494 744 
Q 775 591 1075 516 
Q 1375 441 1709 441 
Q 2250 441 2565 725 
Q 2881 1009 2881 1497 
Q 2881 1984 2565 2268 
Q 2250 2553 1709 2553 
Q 1456 2553 1204 2497 
Q 953 2441 691 2322 
L 691 4666 
z
" transform="scale(0.015625)"/>
        <path id="DejaVuSans-30" d="M 2034 4250 
Q 1547 4250 1301 3770 
Q 1056 3291 1056 2328 
Q 1056 1369 1301 889 
Q 1547 409 2034 409 
Q 2525 409 2770 889 
Q 3016 1369 3016 2328 
Q 3016 3291 2770 3770 
Q 2525 4250 2034 4250 
z
M 2034 4750 
Q 2819 4750 3233 4129 
Q 3647 3509 3647 2328 
Q 3647 1150 3233 529 
Q 2819 -91 2034 -91 
Q 1250 -91 836 529 
Q 422 1150 422 2328 
Q 422 3509 836 4129 
Q 1250 4750 2034 4750 
z
" transform="scale(0.015625)"/>
       </defs>
       <use xlink:href="#DejaVuSans-32"/>
       <use xlink:href="#DejaVuSans-35" x="63.623047"/>
       <use xlink:href="#DejaVuSans-30" x="127.246094"/>
       <use xlink:href="#DejaVuSans-30" x="190.869141"/>
      </g>
     </g>
    </g>
    <g id="xtick_2">
     <g id="line2d_3">
      <path d="M 333.236842 640.8 
L 333.236842 86.4 
" clip-path="url(#pdc6f0e3e30)" style="fill: none; stroke: #b0b0b0; stroke-width: 0.8; stroke-linecap: square"/>
     </g>
     <g id="line2d_4">
      <g>
       <use xlink:href="#ma1a1a1eaed" x="333.236842" y="640.8" style="stroke: #000000; stroke-width: 0.8"/>
      </g>
     </g>
     <g id="text_2">
      <!-- 5000 -->
      <g transform="translate(320.511842 655.398438) scale(0.1 -0.1)">
       <use xlink:href="#DejaVuSans-35"/>
       <use xlink:href="#DejaVuSans-30" x="63.623047"/>
       <use xlink:href="#DejaVuSans-30" x="127.246094"/>
       <use xlink:href="#DejaVuSans-30" x="190.869141"/>
      </g>
     </g>
    </g>
    <g id="xtick_3">
     <g id="line2d_5">
      <path d="M 433.356459 640.8 
L 433.356459 86.4 
" clip-path="url(#pdc6f0e3e30)" style="fill: none; stroke: #b0b0b0; stroke-width: 0.8; stroke-linecap: square"/>
     </g>
     <g id="line2d_6">
      <g>
       <use xlink:href="#ma1a1a1eaed" x="433.356459" y="640.8" style="stroke: #000000; stroke-width: 0.8"/>
      </g>
     </g>
     <g id="text_3">
      <!-- 7500 -->
      <g transform="translate(420.631459 655.398438) scale(0.1 -0.1)">
       <defs>
        <path id="DejaVuSans-37" d="M 525 4666 
L 3525 4666 
L 3525 4397 
L 1831 0 
L 1172 0 
L 2766 4134 
L 525 4134 
L 525 4666 
z
" transform="scale(0.015625)"/>
       </defs>
       <use xlink:href="#DejaVuSans-37"/>
       <use xlink:href="#DejaVuSans-35" x="63.623047"/>
       <use xlink:href="#DejaVuSans-30" x="127.246094"/>
       <use xlink:href="#DejaVuSans-30" x="190.869141"/>
      </g>
     </g>
    </g>
    <g id="xtick_4">
     <g id="line2d_7">
      <path d="M 533.476077 640.8 
L 533.476077 86.4 
" clip-path="url(#pdc6f0e3e30)" style="fill: none; stroke: #b0b0b0; stroke-width: 0.8; stroke-linecap: square"/>
     </g>
     <g id="line2d_8">
      <g>
       <use xlink:href="#ma1a1a1eaed" x="533.476077" y="640.8" style="stroke: #000000; stroke-width: 0.8"/>
      </g>
     </g>
     <g id="text_4">
      <!-- 10000 -->
      <g transform="translate(517.569827 655.398438) scale(0.1 -0.1)">
       <defs>
        <path id="DejaVuSans-31" d="M 794 531 
L 1825 531 
L 1825 4091 
L 703 3866 
L 703 4441 
L 1819 4666 
L 2450 4666 
L 2450 531 
L 3481 531 
L 3481 0 
L 794 0 
L 794 531 
z
" transform="scale(0.015625)"/>
       </defs>
       <use xlink:href="#DejaVuSans-31"/>
       <use xlink:href="#DejaVuSans-30" x="63.623047"/>
       <use xlink:href="#DejaVuSans-30" x="127.246094"/>
       <use xlink:href="#DejaVuSans-30" x="190.869141"/>
       <use xlink:href="#DejaVuSans-30" x="254.492188"/>
      </g>
     </g>
    </g>
    <g id="xtick_5">
     <g id="line2d_9">
      <path d="M 633.595694 640.8 
L 633.595694 86.4 
" clip-path="url(#pdc6f0e3e30)" style="fill: none; stroke: #b0b0b0; stroke-width: 0.8; stroke-linecap: square"/>
     </g>
     <g id="line2d_10">
      <g>
       <use xlink:href="#ma1a1a1eaed" x="633.595694" y="640.8" style="stroke: #000000; stroke-width: 0.8"/>
      </g>
     </g>
     <g id="text_5">
      <!-- 12500 -->
      <g transform="translate(617.689444 655.398438) scale(0.1 -0.1)">
       <use xlink:href="#DejaVuSans-31"/>
       <use xlink:href="#DejaVuSans-32" x="63.623047"/>
       <use xlink:href="#DejaVuSans-35" x="127.246094"/>
       <use xlink:href="#DejaVuSans-30" x="190.869141"/>
       <use xlink:href="#DejaVuSans-30" x="254.492188"/>
      </g>
     </g>
    </g>
    <g id="xtick_6">
     <g id="line2d_11">
      <path d="M 733.715311 640.8 
L 733.715311 86.4 
" clip-path="url(#pdc6f0e3e30)" style="fill: none; stroke: #b0b0b0; stroke-width: 0.8; stroke-linecap: square"/>
     </g>
     <g id="line2d_12">
      <g>
       <use xlink:href="#ma1a1a1eaed" x="733.715311" y="640.8" style="stroke: #000000; stroke-width: 0.8"/>
      </g>
     </g>
     <g id="text_6">
      <!-- 15000 -->
      <g transform="translate(717.809061 655.398438) scale(0.1 -0.1)">
       <use xlink:href="#DejaVuSans-31"/>
       <use xlink:href="#DejaVuSans-35" x="63.623047"/>
       <use xlink:href="#DejaVuSans-30" x="127.246094"/>
       <use xlink:href="#DejaVuSans-30" x="190.869141"/>
       <use xlink:href="#DejaVuSans-30" x="254.492188"/>
      </g>
     </g>
    </g>
    <g id="xtick_7">
     <g id="line2d_13">
      <path d="M 833.834928 640.8 
L 833.834928 86.4 
" clip-path="url(#pdc6f0e3e30)" style="fill: none; stroke: #b0b0b0; stroke-width: 0.8; stroke-linecap: square"/>
     </g>
     <g id="line2d_14">
      <g>
       <use xlink:href="#ma1a1a1eaed" x="833.834928" y="640.8" style="stroke: #000000; stroke-width: 0.8"/>
      </g>
     </g>
     <g id="text_7">
      <!-- 17500 -->
      <g transform="translate(817.928678 655.398438) scale(0.1 -0.1)">
       <use xlink:href="#DejaVuSans-31"/>
       <use xlink:href="#DejaVuSans-37" x="63.623047"/>
       <use xlink:href="#DejaVuSans-35" x="127.246094"/>
       <use xlink:href="#DejaVuSans-30" x="190.869141"/>
       <use xlink:href="#DejaVuSans-30" x="254.492188"/>
      </g>
     </g>
    </g>
    <g id="xtick_8">
     <g id="line2d_15">
      <path d="M 933.954545 640.8 
L 933.954545 86.4 
" clip-path="url(#pdc6f0e3e30)" style="fill: none; stroke: #b0b0b0; stroke-width: 0.8; stroke-linecap: square"/>
     </g>
     <g id="line2d_16">
      <g>
       <use xlink:href="#ma1a1a1eaed" x="933.954545" y="640.8" style="stroke: #000000; stroke-width: 0.8"/>
      </g>
     </g>
     <g id="text_8">
      <!-- 20000 -->
      <g transform="translate(918.048295 655.398438) scale(0.1 -0.1)">
       <use xlink:href="#DejaVuSans-32"/>
       <use xlink:href="#DejaVuSans-30" x="63.623047"/>
       <use xlink:href="#DejaVuSans-30" x="127.246094"/>
       <use xlink:href="#DejaVuSans-30" x="190.869141"/>
       <use xlink:href="#DejaVuSans-30" x="254.492188"/>
      </g>
     </g>
    </g>
    <g id="text_9">
     <!-- Размер данных -->
     <g transform="translate(513.185156 669.076563) scale(0.1 -0.1)">
      <defs>
       <path id="DejaVuSans-420" d="M 1259 4147 
L 1259 2394 
L 2053 2394 
Q 2494 2394 2734 2622 
Q 2975 2850 2975 3272 
Q 2975 3691 2734 3919 
Q 2494 4147 2053 4147 
L 1259 4147 
z
M 628 4666 
L 2053 4666 
Q 2838 4666 3239 4311 
Q 3641 3956 3641 3272 
Q 3641 2581 3239 2228 
Q 2838 1875 2053 1875 
L 1259 1875 
L 1259 0 
L 628 0 
L 628 4666 
z
" transform="scale(0.015625)"/>
       <path id="DejaVuSans-430" d="M 2194 1759 
Q 1497 1759 1228 1600 
Q 959 1441 959 1056 
Q 959 750 1161 570 
Q 1363 391 1709 391 
Q 2188 391 2477 730 
Q 2766 1069 2766 1631 
L 2766 1759 
L 2194 1759 
z
M 3341 1997 
L 3341 0 
L 2766 0 
L 2766 531 
Q 2569 213 2275 61 
Q 1981 -91 1556 -91 
Q 1019 -91 701 211 
Q 384 513 384 1019 
Q 384 1609 779 1909 
Q 1175 2209 1959 2209 
L 2766 2209 
L 2766 2266 
Q 2766 2663 2505 2880 
Q 2244 3097 1772 3097 
Q 1472 3097 1187 3025 
Q 903 2953 641 2809 
L 641 3341 
Q 956 3463 1253 3523 
Q 1550 3584 1831 3584 
Q 2591 3584 2966 3190 
Q 3341 2797 3341 1997 
z
" transform="scale(0.015625)"/>
       <path id="DejaVuSans-437" d="M 2206 1888 
Q 2594 1813 2809 1584 
Q 3025 1356 3025 1019 
Q 3025 478 2622 193 
Q 2219 -91 1475 -91 
Q 1225 -91 961 -47 
Q 697 -3 416 84 
L 416 619 
Q 638 503 903 445 
Q 1169 388 1459 388 
Q 1931 388 2195 563 
Q 2459 738 2459 1019 
Q 2459 1294 2225 1461 
Q 1991 1628 1563 1628 
L 1100 1628 
L 1100 2103 
L 1584 2103 
Q 1947 2103 2158 2242 
Q 2369 2381 2369 2600 
Q 2369 2800 2151 2944 
Q 1934 3088 1563 3088 
Q 1341 3088 1089 3047 
Q 838 3006 534 2916 
L 534 3438 
Q 841 3513 1106 3550 
Q 1372 3588 1609 3588 
Q 2222 3588 2576 3342 
Q 2931 3097 2931 2656 
Q 2931 2366 2743 2164 
Q 2556 1963 2206 1888 
z
" transform="scale(0.015625)"/>
       <path id="DejaVuSans-43c" d="M 581 3500 
L 1422 3500 
L 2416 1156 
L 3413 3500 
L 4247 3500 
L 4247 0 
L 3669 0 
L 3669 2950 
L 2703 672 
L 2128 672 
L 1159 2950 
L 1159 0 
L 581 0 
L 581 3500 
z
" transform="scale(0.015625)"/>
       <path id="DejaVuSans-435" d="M 3597 1894 
L 3597 1613 
L 953 1613 
Q 991 1019 1311 708 
Q 1631 397 2203 397 
Q 2534 397 2845 478 
Q 3156 559 3463 722 
L 3463 178 
Q 3153 47 2828 -22 
Q 2503 -91 2169 -91 
Q 1331 -91 842 396 
Q 353 884 353 1716 
Q 353 2575 817 3079 
Q 1281 3584 2069 3584 
Q 2775 3584 3186 3129 
Q 3597 2675 3597 1894 
z
M 3022 2063 
Q 3016 2534 2758 2815 
Q 2500 3097 2075 3097 
Q 1594 3097 1305 2825 
Q 1016 2553 972 2059 
L 3022 2063 
z
" transform="scale(0.015625)"/>
       <path id="DejaVuSans-440" d="M 1159 525 
L 1159 -1331 
L 581 -1331 
L 581 3500 
L 1159 3500 
L 1159 2969 
Q 1341 3281 1617 3432 
Q 1894 3584 2278 3584 
Q 2916 3584 3314 3078 
Q 3713 2572 3713 1747 
Q 3713 922 3314 415 
Q 2916 -91 2278 -91 
Q 1894 -91 1617 61 
Q 1341 213 1159 525 
z
M 3116 1747 
Q 3116 2381 2855 2742 
Q 2594 3103 2138 3103 
Q 1681 3103 1420 2742 
Q 1159 2381 1159 1747 
Q 1159 1113 1420 752 
Q 1681 391 2138 391 
Q 2594 391 2855 752 
Q 3116 1113 3116 1747 
z
" transform="scale(0.015625)"/>
       <path id="DejaVuSans-20" transform="scale(0.015625)"/>
       <path id="DejaVuSans-434" d="M 1384 459 
L 3053 459 
L 3053 3041 
L 1844 3041 
L 1844 2603 
Q 1844 1316 1475 628 
L 1384 459 
z
M 550 459 
Q 834 584 959 850 
Q 1266 1509 1266 2838 
L 1266 3500 
L 3631 3500 
L 3631 459 
L 4091 459 
L 4091 -884 
L 3631 -884 
L 3631 0 
L 794 0 
L 794 -884 
L 334 -884 
L 334 459 
L 550 459 
z
" transform="scale(0.015625)"/>
       <path id="DejaVuSans-43d" d="M 581 3500 
L 1159 3500 
L 1159 2072 
L 3025 2072 
L 3025 3500 
L 3603 3500 
L 3603 0 
L 3025 0 
L 3025 1613 
L 1159 1613 
L 1159 0 
L 581 0 
L 581 3500 
z
" transform="scale(0.015625)"/>
       <path id="DejaVuSans-44b" d="M 3907 3500 
L 4482 3500 
L 4482 0 
L 3907 0 
L 3907 3500 
z
M 4195 3584 
L 4195 3584 
z
M 2781 1038 
Q 2781 1319 2576 1466 
Q 2372 1613 1978 1613 
L 1159 1613 
L 1159 459 
L 1978 459 
Q 2372 459 2576 607 
Q 2781 756 2781 1038 
z
M 581 3500 
L 1159 3500 
L 1159 2072 
L 2003 2072 
Q 2672 2072 3033 1817 
Q 3394 1563 3394 1038 
Q 3394 513 3033 256 
Q 2672 0 2003 0 
L 581 0 
L 581 3500 
z
" transform="scale(0.015625)"/>
       <path id="DejaVuSans-445" d="M 3513 3500 
L 2247 1797 
L 3578 0 
L 2900 0 
L 1881 1375 
L 863 0 
L 184 0 
L 1544 1831 
L 300 3500 
L 978 3500 
L 1906 2253 
L 2834 3500 
L 3513 3500 
z
" transform="scale(0.015625)"/>
      </defs>
      <use xlink:href="#DejaVuSans-420"/>
      <use xlink:href="#DejaVuSans-430" x="60.302734"/>
      <use xlink:href="#DejaVuSans-437" x="121.582031"/>
      <use xlink:href="#DejaVuSans-43c" x="174.755859"/>
      <use xlink:href="#DejaVuSans-435" x="250.195312"/>
      <use xlink:href="#DejaVuSans-440" x="311.71875"/>
      <use xlink:href="#DejaVuSans-20" x="375.195312"/>
      <use xlink:href="#DejaVuSans-434" x="406.982422"/>
      <use xlink:href="#DejaVuSans-430" x="476.123047"/>
      <use xlink:href="#DejaVuSans-43d" x="537.402344"/>
      <use xlink:href="#DejaVuSans-43d" x="602.783203"/>
      <use xlink:href="#DejaVuSans-44b" x="668.164062"/>
      <use xlink:href="#DejaVuSans-445" x="747.119141"/>
     </g>
    </g>
   </g>
   <g id="matplotlib.axis_2">
    <g id="ytick_1">
     <g id="line2d_17">
      <path d="M 135 616.60845 
L 972 616.60845 
" clip-path="url(#pdc6f0e3e30)" style="fill: none; stroke: #b0b0b0; stroke-width: 0.8; stroke-linecap: square"/>
     </g>
     <g id="line2d_18">
      <defs>
       <path id="m338ae78553" d="M 0 0 
L -3.5 0 
" style="stroke: #000000; stroke-width: 0.8"/>
      </defs>
      <g>
       <use xlink:href="#m338ae78553" x="135" y="616.60845" style="stroke: #000000; stroke-width: 0.8"/>
      </g>
     </g>
     <g id="text_10">
      <!-- 0.0 -->
      <g transform="translate(112.096875 620.407669) scale(0.1 -0.1)">
       <defs>
        <path id="DejaVuSans-2e" d="M 684 794 
L 1344 794 
L 1344 0 
L 684 0 
L 684 794 
z
" transform="scale(0.015625)"/>
       </defs>
       <use xlink:href="#DejaVuSans-30"/>
       <use xlink:href="#DejaVuSans-2e" x="63.623047"/>
       <use xlink:href="#DejaVuSans-30" x="95.410156"/>
      </g>
     </g>
    </g>
    <g id="ytick_2">
     <g id="line2d_19">
      <path d="M 135 536.788306 
L 972 536.788306 
" clip-path="url(#pdc6f0e3e30)" style="fill: none; stroke: #b0b0b0; stroke-width: 0.8; stroke-linecap: square"/>
     </g>
     <g id="line2d_20">
      <g>
       <use xlink:href="#m338ae78553" x="135" y="536.788306" style="stroke: #000000; stroke-width: 0.8"/>
      </g>
     </g>
     <g id="text_11">
      <!-- 0.5 -->
      <g transform="translate(112.096875 540.587525) scale(0.1 -0.1)">
       <use xlink:href="#DejaVuSans-30"/>
       <use xlink:href="#DejaVuSans-2e" x="63.623047"/>
       <use xlink:href="#DejaVuSans-35" x="95.410156"/>
      </g>
     </g>
    </g>
    <g id="ytick_3">
     <g id="line2d_21">
      <path d="M 135 456.968162 
L 972 456.968162 
" clip-path="url(#pdc6f0e3e30)" style="fill: none; stroke: #b0b0b0; stroke-width: 0.8; stroke-linecap: square"/>
     </g>
     <g id="line2d_22">
      <g>
       <use xlink:href="#m338ae78553" x="135" y="456.968162" style="stroke: #000000; stroke-width: 0.8"/>
      </g>
     </g>
     <g id="text_12">
      <!-- 1.0 -->
      <g transform="translate(112.096875 460.76738) scale(0.1 -0.1)">
       <use xlink:href="#DejaVuSans-31"/>
       <use xlink:href="#DejaVuSans-2e" x="63.623047"/>
       <use xlink:href="#DejaVuSans-30" x="95.410156"/>
      </g>
     </g>
    </g>
    <g id="ytick_4">
     <g id="line2d_23">
      <path d="M 135 377.148017 
L 972 377.148017 
" clip-path="url(#pdc6f0e3e30)" style="fill: none; stroke: #b0b0b0; stroke-width: 0.8; stroke-linecap: square"/>
     </g>
     <g id="line2d_24">
      <g>
       <use xlink:href="#m338ae78553" x="135" y="377.148017" style="stroke: #000000; stroke-width: 0.8"/>
      </g>
     </g>
     <g id="text_13">
      <!-- 1.5 -->
      <g transform="translate(112.096875 380.947236) scale(0.1 -0.1)">
       <use xlink:href="#DejaVuSans-31"/>
       <use xlink:href="#DejaVuSans-2e" x="63.623047"/>
       <use xlink:href="#DejaVuSans-35" x="95.410156"/>
      </g>
     </g>
    </g>
    <g id="ytick_5">
     <g id="line2d_25">
      <path d="M 135 297.327873 
L 972 297.327873 
" clip-path="url(#pdc6f0e3e30)" style="fill: none; stroke: #b0b0b0; stroke-width: 0.8; stroke-linecap: square"/>
     </g>
     <g id="line2d_26">
      <g>
       <use xlink:href="#m338ae78553" x="135" y="297.327873" style="stroke: #000000; stroke-width: 0.8"/>
      </g>
     </g>
     <g id="text_14">
      <!-- 2.0 -->
      <g transform="translate(112.096875 301.127092) scale(0.1 -0.1)">
       <use xlink:href="#DejaVuSans-32"/>
       <use xlink:href="#DejaVuSans-2e" x="63.623047"/>
       <use xlink:href="#DejaVuSans-30" x="95.410156"/>
      </g>
     </g>
    </g>
    <g id="ytick_6">
     <g id="line2d_27">
      <path d="M 135 217.507729 
L 972 217.507729 
" clip-path="url(#pdc6f0e3e30)" style="fill: none; stroke: #b0b0b0; stroke-width: 0.8; stroke-linecap: square"/>
     </g>
     <g id="line2d_28">
      <g>
       <use xlink:href="#m338ae78553" x="135" y="217.507729" style="stroke: #000000; stroke-width: 0.8"/>
      </g>
     </g>
     <g id="text_15">
      <!-- 2.5 -->
      <g transform="translate(112.096875 221.306948) scale(0.1 -0.1)">
       <use xlink:href="#DejaVuSans-32"/>
       <use xlink:href="#DejaVuSans-2e" x="63.623047"/>
       <use xlink:href="#DejaVuSans-35" x="95.410156"/>
      </g>
     </g>
    </g>
    <g id="ytick_7">
     <g id="line2d_29">
      <path d="M 135 137.687585 
L 972 137.687585 
" clip-path="url(#pdc6f0e3e30)" style="fill: none; stroke: #b0b0b0; stroke-width: 0.8; stroke-linecap: square"/>
     </g>
     <g id="line2d_30">
      <g>
       <use xlink:href="#m338ae78553" x="135" y="137.687585" style="stroke: #000000; stroke-width: 0.8"/>
      </g>
     </g>
     <g id="text_16">
      <!-- 3.0 -->
      <g transform="translate(112.096875 141.486803) scale(0.1 -0.1)">
       <defs>
        <path id="DejaVuSans-33" d="M 2597 2516 
Q 3050 2419 3304 2112 
Q 3559 1806 3559 1356 
Q 3559 666 3084 287 
Q 2609 -91 1734 -91 
Q 1441 -91 1130 -33 
Q 819 25 488 141 
L 488 750 
Q 750 597 1062 519 
Q 1375 441 1716 441 
Q 2309 441 2620 675 
Q 2931 909 2931 1356 
Q 2931 1769 2642 2001 
Q 2353 2234 1838 2234 
L 1294 2234 
L 1294 2753 
L 1863 2753 
Q 2328 2753 2575 2939 
Q 2822 3125 2822 3475 
Q 2822 3834 2567 4026 
Q 2313 4219 1838 4219 
Q 1578 4219 1281 4162 
Q 984 4106 628 3988 
L 628 4550 
Q 988 4650 1302 4700 
Q 1616 4750 1894 4750 
Q 2613 4750 3031 4423 
Q 3450 4097 3450 3541 
Q 3450 3153 3228 2886 
Q 3006 2619 2597 2516 
z
" transform="scale(0.015625)"/>
       </defs>
       <use xlink:href="#DejaVuSans-33"/>
       <use xlink:href="#DejaVuSans-2e" x="63.623047"/>
       <use xlink:href="#DejaVuSans-30" x="95.410156"/>
      </g>
     </g>
    </g>
    <g id="text_17">
     <!-- Средние тики (TSC) -->
     <g transform="translate(106.017187 415.624219) rotate(-90) scale(0.1 -0.1)">
      <defs>
       <path id="DejaVuSans-421" d="M 4122 4306 
L 4122 3641 
Q 3803 3938 3442 4084 
Q 3081 4231 2675 4231 
Q 1875 4231 1450 3742 
Q 1025 3253 1025 2328 
Q 1025 1406 1450 917 
Q 1875 428 2675 428 
Q 3081 428 3442 575 
Q 3803 722 4122 1019 
L 4122 359 
Q 3791 134 3420 21 
Q 3050 -91 2638 -91 
Q 1578 -91 968 557 
Q 359 1206 359 2328 
Q 359 3453 968 4101 
Q 1578 4750 2638 4750 
Q 3056 4750 3426 4639 
Q 3797 4528 4122 4306 
z
" transform="scale(0.015625)"/>
       <path id="DejaVuSans-438" d="M 3578 3500 
L 3578 0 
L 3006 0 
L 3006 2809 
L 1319 0 
L 581 0 
L 581 3500 
L 1153 3500 
L 1153 697 
L 2838 3500 
L 3578 3500 
z
" transform="scale(0.015625)"/>
       <path id="DejaVuSans-442" d="M 188 3500 
L 3541 3500 
L 3541 3041 
L 2147 3041 
L 2147 0 
L 1581 0 
L 1581 3041 
L 188 3041 
L 188 3500 
z
" transform="scale(0.015625)"/>
       <path id="DejaVuSans-43a" d="M 581 3500 
L 1153 3500 
L 1153 1856 
L 2775 3500 
L 3481 3500 
L 2144 2147 
L 3653 0 
L 3009 0 
L 1769 1766 
L 1153 1141 
L 1153 0 
L 581 0 
L 581 3500 
z
" transform="scale(0.015625)"/>
       <path id="DejaVuSans-28" d="M 1984 4856 
Q 1566 4138 1362 3434 
Q 1159 2731 1159 2009 
Q 1159 1288 1364 580 
Q 1569 -128 1984 -844 
L 1484 -844 
Q 1016 -109 783 600 
Q 550 1309 550 2009 
Q 550 2706 781 3412 
Q 1013 4119 1484 4856 
L 1984 4856 
z
" transform="scale(0.015625)"/>
       <path id="DejaVuSans-54" d="M -19 4666 
L 3928 4666 
L 3928 4134 
L 2272 4134 
L 2272 0 
L 1638 0 
L 1638 4134 
L -19 4134 
L -19 4666 
z
" transform="scale(0.015625)"/>
       <path id="DejaVuSans-53" d="M 3425 4513 
L 3425 3897 
Q 3066 4069 2747 4153 
Q 2428 4238 2131 4238 
Q 1616 4238 1336 4038 
Q 1056 3838 1056 3469 
Q 1056 3159 1242 3001 
Q 1428 2844 1947 2747 
L 2328 2669 
Q 3034 2534 3370 2195 
Q 3706 1856 3706 1288 
Q 3706 609 3251 259 
Q 2797 -91 1919 -91 
Q 1588 -91 1214 -16 
Q 841 59 441 206 
L 441 856 
Q 825 641 1194 531 
Q 1563 422 1919 422 
Q 2459 422 2753 634 
Q 3047 847 3047 1241 
Q 3047 1584 2836 1778 
Q 2625 1972 2144 2069 
L 1759 2144 
Q 1053 2284 737 2584 
Q 422 2884 422 3419 
Q 422 4038 858 4394 
Q 1294 4750 2059 4750 
Q 2388 4750 2728 4690 
Q 3069 4631 3425 4513 
z
" transform="scale(0.015625)"/>
       <path id="DejaVuSans-43" d="M 4122 4306 
L 4122 3641 
Q 3803 3938 3442 4084 
Q 3081 4231 2675 4231 
Q 1875 4231 1450 3742 
Q 1025 3253 1025 2328 
Q 1025 1406 1450 917 
Q 1875 428 2675 428 
Q 3081 428 3442 575 
Q 3803 722 4122 1019 
L 4122 359 
Q 3791 134 3420 21 
Q 3050 -91 2638 -91 
Q 1578 -91 968 557 
Q 359 1206 359 2328 
Q 359 3453 968 4101 
Q 1578 4750 2638 4750 
Q 3056 4750 3426 4639 
Q 3797 4528 4122 4306 
z
" transform="scale(0.015625)"/>
       <path id="DejaVuSans-29" d="M 513 4856 
L 1013 4856 
Q 1481 4119 1714 3412 
Q 1947 2706 1947 2009 
Q 1947 1309 1714 600 
Q 1481 -109 1013 -844 
L 513 -844 
Q 928 -128 1133 580 
Q 1338 1288 1338 2009 
Q 1338 2731 1133 3434 
Q 928 4138 513 4856 
z
" transform="scale(0.015625)"/>
      </defs>
      <use xlink:href="#DejaVuSans-421"/>
      <use xlink:href="#DejaVuSans-440" x="69.824219"/>
      <use xlink:href="#DejaVuSans-435" x="133.300781"/>
      <use xlink:href="#DejaVuSans-434" x="194.824219"/>
      <use xlink:href="#DejaVuSans-43d" x="263.964844"/>
      <use xlink:href="#DejaVuSans-438" x="329.345703"/>
      <use xlink:href="#DejaVuSans-435" x="394.335938"/>
      <use xlink:href="#DejaVuSans-20" x="455.859375"/>
      <use xlink:href="#DejaVuSans-442" x="487.646484"/>
      <use xlink:href="#DejaVuSans-438" x="545.898438"/>
      <use xlink:href="#DejaVuSans-43a" x="610.888672"/>
      <use xlink:href="#DejaVuSans-438" x="671.289062"/>
      <use xlink:href="#DejaVuSans-20" x="736.279297"/>
      <use xlink:href="#DejaVuSans-28" x="768.066406"/>
      <use xlink:href="#DejaVuSans-54" x="807.080078"/>
      <use xlink:href="#DejaVuSans-53" x="868.164062"/>
      <use xlink:href="#DejaVuSans-43" x="931.640625"/>
      <use xlink:href="#DejaVuSans-29" x="1001.464844"/>
     </g>
    </g>
    <g id="text_18">
     <!-- 1e8 -->
     <g transform="translate(135 83.4) scale(0.1 -0.1)">
      <defs>
       <path id="DejaVuSans-65" d="M 3597 1894 
L 3597 1613 
L 953 1613 
Q 991 1019 1311 708 
Q 1631 397 2203 397 
Q 2534 397 2845 478 
Q 3156 559 3463 722 
L 3463 178 
Q 3153 47 2828 -22 
Q 2503 -91 2169 -91 
Q 1331 -91 842 396 
Q 353 884 353 1716 
Q 353 2575 817 3079 
Q 1281 3584 2069 3584 
Q 2775 3584 3186 3129 
Q 3597 2675 3597 1894 
z
M 3022 2063 
Q 3016 2534 2758 2815 
Q 2500 3097 2075 3097 
Q 1594 3097 1305 2825 
Q 1016 2553 972 2059 
L 3022 2063 
z
" transform="scale(0.015625)"/>
       <path id="DejaVuSans-38" d="M 2034 2216 
Q 1584 2216 1326 1975 
Q 1069 1734 1069 1313 
Q 1069 891 1326 650 
Q 1584 409 2034 409 
Q 2484 409 2743 651 
Q 3003 894 3003 1313 
Q 3003 1734 2745 1975 
Q 2488 2216 2034 2216 
z
M 1403 2484 
Q 997 2584 770 2862 
Q 544 3141 544 3541 
Q 544 4100 942 4425 
Q 1341 4750 2034 4750 
Q 2731 4750 3128 4425 
Q 3525 4100 3525 3541 
Q 3525 3141 3298 2862 
Q 3072 2584 2669 2484 
Q 3125 2378 3379 2068 
Q 3634 1759 3634 1313 
Q 3634 634 3220 271 
Q 2806 -91 2034 -91 
Q 1263 -91 848 271 
Q 434 634 434 1313 
Q 434 1759 690 2068 
Q 947 2378 1403 2484 
z
M 1172 3481 
Q 1172 3119 1398 2916 
Q 1625 2713 2034 2713 
Q 2441 2713 2670 2916 
Q 2900 3119 2900 3481 
Q 2900 3844 2670 4047 
Q 2441 4250 2034 4250 
Q 1625 4250 1398 4047 
Q 1172 3844 1172 3481 
z
" transform="scale(0.015625)"/>
      </defs>
      <use xlink:href="#DejaVuSans-31"/>
      <use xlink:href="#DejaVuSans-65" x="63.623047"/>
      <use xlink:href="#DejaVuSans-38" x="125.146484"/>
     </g>
    </g>
   </g>
   <g id="line2d_31">
    <path d="M 173.045455 615.319141 
L 193.069378 613.910321 
L 213.093301 611.802217 
L 233.117225 608.972172 
L 253.141148 605.296908 
L 273.165072 601.046942 
L 293.188995 597.331889 
L 313.212919 592.662137 
L 333.236842 586.490925 
L 353.260766 578.339204 
L 373.284689 571.298318 
L 393.308612 564.89805 
L 413.332536 555.256583 
L 433.356459 550.414897 
L 453.380383 540.599171 
L 473.404306 528.616188 
L 493.42823 514.630466 
L 513.452153 502.555824 
L 533.476077 495.207322 
L 553.5 482.940818 
L 573.523923 464.295976 
L 593.547847 449.956877 
L 613.57177 435.311859 
L 633.595694 419.875157 
L 653.619617 403.55475 
L 673.643541 397.105774 
L 693.667464 379.280192 
L 713.691388 362.698858 
L 733.715311 346.658444 
L 753.739234 327.580335 
L 773.763158 296.195825 
L 793.787081 289.185573 
L 813.811005 265.402475 
L 833.834928 242.586796 
L 853.858852 205.428947 
L 873.882775 181.675625 
L 893.906699 174.88829 
L 913.930622 155.267991 
L 933.954545 123.676688 
" clip-path="url(#pdc6f0e3e30)" style="fill: none; stroke: #1f77b4; stroke-linecap: square"/>
    <defs>
     <path id="m1ad56cba61" d="M 0 0 
L -3 -0 
M 0 0 
L 1.5 2.4 
M 0 0 
L 1.5 -2.4 
" style="stroke: #1f77b4"/>
    </defs>
    <g clip-path="url(#pdc6f0e3e30)">
     <use xlink:href="#m1ad56cba61" x="173.045455" y="615.319141" style="fill: #1f77b4; stroke: #1f77b4"/>
     <use xlink:href="#m1ad56cba61" x="193.069378" y="613.910321" style="fill: #1f77b4; stroke: #1f77b4"/>
     <use xlink:href="#m1ad56cba61" x="213.093301" y="611.802217" style="fill: #1f77b4; stroke: #1f77b4"/>
     <use xlink:href="#m1ad56cba61" x="233.117225" y="608.972172" style="fill: #1f77b4; stroke: #1f77b4"/>
     <use xlink:href="#m1ad56cba61" x="253.141148" y="605.296908" style="fill: #1f77b4; stroke: #1f77b4"/>
     <use xlink:href="#m1ad56cba61" x="273.165072" y="601.046942" style="fill: #1f77b4; stroke: #1f77b4"/>
     <use xlink:href="#m1ad56cba61" x="293.188995" y="597.331889" style="fill: #1f77b4; stroke: #1f77b4"/>
     <use xlink:href="#m1ad56cba61" x="313.212919" y="592.662137" style="fill: #1f77b4; stroke: #1f77b4"/>
     <use xlink:href="#m1ad56cba61" x="333.236842" y="586.490925" style="fill: #1f77b4; stroke: #1f77b4"/>
     <use xlink:href="#m1ad56cba61" x="353.260766" y="578.339204" style="fill: #1f77b4; stroke: #1f77b4"/>
     <use xlink:href="#m1ad56cba61" x="373.284689" y="571.298318" style="fill: #1f77b4; stroke: #1f77b4"/>
     <use xlink:href="#m1ad56cba61" x="393.308612" y="564.89805" style="fill: #1f77b4; stroke: #1f77b4"/>
     <use xlink:href="#m1ad56cba61" x="413.332536" y="555.256583" style="fill: #1f77b4; stroke: #1f77b4"/>
     <use xlink:href="#m1ad56cba61" x="433.356459" y="550.414897" style="fill: #1f77b4; stroke: #1f77b4"/>
     <use xlink:href="#m1ad56cba61" x="453.380383" y="540.599171" style="fill: #1f77b4; stroke: #1f77b4"/>
     <use xlink:href="#m1ad56cba61" x="473.404306" y="528.616188" style="fill: #1f77b4; stroke: #1f77b4"/>
     <use xlink:href="#m1ad56cba61" x="493.42823" y="514.630466" style="fill: #1f77b4; stroke: #1f77b4"/>
     <use xlink:href="#m1ad56cba61" x="513.452153" y="502.555824" style="fill: #1f77b4; stroke: #1f77b4"/>
     <use xlink:href="#m1ad56cba61" x="533.476077" y="495.207322" style="fill: #1f77b4; stroke: #1f77b4"/>
     <use xlink:href="#m1ad56cba61" x="553.5" y="482.940818" style="fill: #1f77b4; stroke: #1f77b4"/>
     <use xlink:href="#m1ad56cba61" x="573.523923" y="464.295976" style="fill: #1f77b4; stroke: #1f77b4"/>
     <use xlink:href="#m1ad56cba61" x="593.547847" y="449.956877" style="fill: #1f77b4; stroke: #1f77b4"/>
     <use xlink:href="#m1ad56cba61" x="613.57177" y="435.311859" style="fill: #1f77b4; stroke: #1f77b4"/>
     <use xlink:href="#m1ad56cba61" x="633.595694" y="419.875157" style="fill: #1f77b4; stroke: #1f77b4"/>
     <use xlink:href="#m1ad56cba61" x="653.619617" y="403.55475" style="fill: #1f77b4; stroke: #1f77b4"/>
     <use xlink:href="#m1ad56cba61" x="673.643541" y="397.105774" style="fill: #1f77b4; stroke: #1f77b4"/>
     <use xlink:href="#m1ad56cba61" x="693.667464" y="379.280192" style="fill: #1f77b4; stroke: #1f77b4"/>
     <use xlink:href="#m1ad56cba61" x="713.691388" y="362.698858" style="fill: #1f77b4; stroke: #1f77b4"/>
     <use xlink:href="#m1ad56cba61" x="733.715311" y="346.658444" style="fill: #1f77b4; stroke: #1f77b4"/>
     <use xlink:href="#m1ad56cba61" x="753.739234" y="327.580335" style="fill: #1f77b4; stroke: #1f77b4"/>
     <use xlink:href="#m1ad56cba61" x="773.763158" y="296.195825" style="fill: #1f77b4; stroke: #1f77b4"/>
     <use xlink:href="#m1ad56cba61" x="793.787081" y="289.185573" style="fill: #1f77b4; stroke: #1f77b4"/>
     <use xlink:href="#m1ad56cba61" x="813.811005" y="265.402475" style="fill: #1f77b4; stroke: #1f77b4"/>
     <use xlink:href="#m1ad56cba61" x="833.834928" y="242.586796" style="fill: #1f77b4; stroke: #1f77b4"/>
     <use xlink:href="#m1ad56cba61" x="853.858852" y="205.428947" style="fill: #1f77b4; stroke: #1f77b4"/>
     <use xlink:href="#m1ad56cba61" x="873.882775" y="181.675625" style="fill: #1f77b4; stroke: #1f77b4"/>
     <use xlink:href="#m1ad56cba61" x="893.906699" y="174.88829" style="fill: #1f77b4; stroke: #1f77b4"/>
     <use xlink:href="#m1ad56cba61" x="913.930622" y="155.267991" style="fill: #1f77b4; stroke: #1f77b4"/>
     <use xlink:href="#m1ad56cba61" x="933.954545" y="123.676688" style="fill: #1f77b4; stroke: #1f77b4"/>
    </g>
   </g>
   <g id="line2d_32">
    <path d="M 173.045455 615.33417 
L 193.069378 613.486809 
L 213.093301 611.618329 
L 233.117225 608.415679 
L 253.141148 604.908095 
L 273.165072 601.674496 
L 293.188995 597.533602 
L 313.212919 591.745326 
L 333.236842 585.637729 
L 353.260766 578.709265 
L 373.284689 570.527688 
L 393.308612 562.467902 
L 413.332536 555.341334 
L 433.356459 547.076629 
L 453.380383 533.321827 
L 473.404306 529.420217 
L 493.42823 516.161109 
L 513.452153 499.366364 
L 533.476077 493.660563 
L 553.5 472.78957 
L 573.523923 461.365512 
L 593.547847 446.947213 
L 613.57177 431.911758 
L 633.595694 416.212723 
L 653.619617 410.97723 
L 673.643541 381.311344 
L 693.667464 374.474659 
L 713.691388 359.010528 
L 733.715311 340.869024 
L 753.739234 329.252183 
L 773.763158 309.203873 
L 793.787081 286.446009 
L 813.811005 251.280568 
L 833.834928 236.325592 
L 853.858852 197.36621 
L 873.882775 190.12274 
L 893.906699 164.242099 
L 913.930622 140.87507 
L 933.954545 111.6 
" clip-path="url(#pdc6f0e3e30)" style="fill: none; stroke: #ff7f0e; stroke-linecap: square"/>
    <defs>
     <path id="m3cc0b3ae11" d="M 0 0 
L -3 -0 
M 0 0 
L 1.5 2.4 
M 0 0 
L 1.5 -2.4 
" style="stroke: #ff7f0e"/>
    </defs>
    <g clip-path="url(#pdc6f0e3e30)">
     <use xlink:href="#m3cc0b3ae11" x="173.045455" y="615.33417" style="fill: #ff7f0e; stroke: #ff7f0e"/>
     <use xlink:href="#m3cc0b3ae11" x="193.069378" y="613.486809" style="fill: #ff7f0e; stroke: #ff7f0e"/>
     <use xlink:href="#m3cc0b3ae11" x="213.093301" y="611.618329" style="fill: #ff7f0e; stroke: #ff7f0e"/>
     <use xlink:href="#m3cc0b3ae11" x="233.117225" y="608.415679" style="fill: #ff7f0e; stroke: #ff7f0e"/>
     <use xlink:href="#m3cc0b3ae11" x="253.141148" y="604.908095" style="fill: #ff7f0e; stroke: #ff7f0e"/>
     <use xlink:href="#m3cc0b3ae11" x="273.165072" y="601.674496" style="fill: #ff7f0e; stroke: #ff7f0e"/>
     <use xlink:href="#m3cc0b3ae11" x="293.188995" y="597.533602" style="fill: #ff7f0e; stroke: #ff7f0e"/>
     <use xlink:href="#m3cc0b3ae11" x="313.212919" y="591.745326" style="fill: #ff7f0e; stroke: #ff7f0e"/>
     <use xlink:href="#m3cc0b3ae11" x="333.236842" y="585.637729" style="fill: #ff7f0e; stroke: #ff7f0e"/>
     <use xlink:href="#m3cc0b3ae11" x="353.260766" y="578.709265" style="fill: #ff7f0e; stroke: #ff7f0e"/>
     <use xlink:href="#m3cc0b3ae11" x="373.284689" y="570.527688" style="fill: #ff7f0e; stroke: #ff7f0e"/>
     <use xlink:href="#m3cc0b3ae11" x="393.308612" y="562.467902" style="fill: #ff7f0e; stroke: #ff7f0e"/>
     <use xlink:href="#m3cc0b3ae11" x="413.332536" y="555.341334" style="fill: #ff7f0e; stroke: #ff7f0e"/>
     <use xlink:href="#m3cc0b3ae11" x="433.356459" y="547.076629" style="fill: #ff7f0e; stroke: #ff7f0e"/>
     <use xlink:href="#m3cc0b3ae11" x="453.380383" y="533.321827" style="fill: #ff7f0e; stroke: #ff7f0e"/>
     <use xlink:href="#m3cc0b3ae11" x="473.404306" y="529.420217" style="fill: #ff7f0e; stroke: #ff7f0e"/>
     <use xlink:href="#m3cc0b3ae11" x="493.42823" y="516.161109" style="fill: #ff7f0e; stroke: #ff7f0e"/>
     <use xlink:href="#m3cc0b3ae11" x="513.452153" y="499.366364" style="fill: #ff7f0e; stroke: #ff7f0e"/>
     <use xlink:href="#m3cc0b3ae11" x="533.476077" y="493.660563" style="fill: #ff7f0e; stroke: #ff7f0e"/>
     <use xlink:href="#m3cc0b3ae11" x="553.5" y="472.78957" style="fill: #ff7f0e; stroke: #ff7f0e"/>
     <use xlink:href="#m3cc0b3ae11" x="573.523923" y="461.365512" style="fill: #ff7f0e; stroke: #ff7f0e"/>
     <use xlink:href="#m3cc0b3ae11" x="593.547847" y="446.947213" style="fill: #ff7f0e; stroke: #ff7f0e"/>
     <use xlink:href="#m3cc0b3ae11" x="613.57177" y="431.911758" style="fill: #ff7f0e; stroke: #ff7f0e"/>
     <use xlink:href="#m3cc0b3ae11" x="633.595694" y="416.212723" style="fill: #ff7f0e; stroke: #ff7f0e"/>
     <use xlink:href="#m3cc0b3ae11" x="653.619617" y="410.97723" style="fill: #ff7f0e; stroke: #ff7f0e"/>
     <use xlink:href="#m3cc0b3ae11" x="673.643541" y="381.311344" style="fill: #ff7f0e; stroke: #ff7f0e"/>
     <use xlink:href="#m3cc0b3ae11" x="693.667464" y="374.474659" style="fill: #ff7f0e; stroke: #ff7f0e"/>
     <use xlink:href="#m3cc0b3ae11" x="713.691388" y="359.010528" style="fill: #ff7f0e; stroke: #ff7f0e"/>
     <use xlink:href="#m3cc0b3ae11" x="733.715311" y="340.869024" style="fill: #ff7f0e; stroke: #ff7f0e"/>
     <use xlink:href="#m3cc0b3ae11" x="753.739234" y="329.252183" style="fill: #ff7f0e; stroke: #ff7f0e"/>
     <use xlink:href="#m3cc0b3ae11" x="773.763158" y="309.203873" style="fill: #ff7f0e; stroke: #ff7f0e"/>
     <use xlink:href="#m3cc0b3ae11" x="793.787081" y="286.446009" style="fill: #ff7f0e; stroke: #ff7f0e"/>
     <use xlink:href="#m3cc0b3ae11" x="813.811005" y="251.280568" style="fill: #ff7f0e; stroke: #ff7f0e"/>
     <use xlink:href="#m3cc0b3ae11" x="833.834928" y="236.325592" style="fill: #ff7f0e; stroke: #ff7f0e"/>
     <use xlink:href="#m3cc0b3ae11" x="853.858852" y="197.36621" style="fill: #ff7f0e; stroke: #ff7f0e"/>
     <use xlink:href="#m3cc0b3ae11" x="873.882775" y="190.12274" style="fill: #ff7f0e; stroke: #ff7f0e"/>
     <use xlink:href="#m3cc0b3ae11" x="893.906699" y="164.242099" style="fill: #ff7f0e; stroke: #ff7f0e"/>
     <use xlink:href="#m3cc0b3ae11" x="913.930622" y="140.87507" style="fill: #ff7f0e; stroke: #ff7f0e"/>
     <use xlink:href="#m3cc0b3ae11" x="933.954545" y="111.6" style="fill: #ff7f0e; stroke: #ff7f0e"/>
    </g>
   </g>
   <g id="line2d_33">
    <path d="M 173.045455 615.6 
L 193.069378 614.380036 
L 213.093301 612.522836 
L 233.117225 610.486413 
L 253.141148 607.720881 
L 273.165072 604.326627 
L 293.188995 600.872252 
L 313.212919 596.980191 
L 333.236842 592.667196 
L 353.260766 586.533244 
L 373.284689 581.16203 
L 393.308612 573.728157 
L 413.332536 567.333824 
L 433.356459 561.732086 
L 453.380383 555.904426 
L 473.404306 547.126893 
L 493.42823 534.941028 
L 513.452153 528.516181 
L 533.476077 519.219071 
L 553.5 505.216691 
L 573.523923 494.355399 
L 593.547847 482.434115 
L 613.57177 471.364838 
L 633.595694 458.932972 
L 653.619617 448.792874 
L 673.643541 437.817366 
L 693.667464 428.052737 
L 713.691388 406.028143 
L 733.715311 400.061677 
L 753.739234 385.444843 
L 773.763158 371.217579 
L 793.787081 356.313495 
L 813.811005 336.538305 
L 833.834928 319.028379 
L 853.858852 286.315428 
L 873.882775 280.716948 
L 893.906699 262.280869 
L 913.930622 242.329979 
L 933.954545 217.750125 
" clip-path="url(#pdc6f0e3e30)" style="fill: none; stroke: #2ca02c; stroke-linecap: square"/>
    <defs>
     <path id="mcb67efd45a" d="M 0 0 
L -3 -0 
M 0 0 
L 1.5 2.4 
M 0 0 
L 1.5 -2.4 
" style="stroke: #2ca02c"/>
    </defs>
    <g clip-path="url(#pdc6f0e3e30)">
     <use xlink:href="#mcb67efd45a" x="173.045455" y="615.6" style="fill: #2ca02c; stroke: #2ca02c"/>
     <use xlink:href="#mcb67efd45a" x="193.069378" y="614.380036" style="fill: #2ca02c; stroke: #2ca02c"/>
     <use xlink:href="#mcb67efd45a" x="213.093301" y="612.522836" style="fill: #2ca02c; stroke: #2ca02c"/>
     <use xlink:href="#mcb67efd45a" x="233.117225" y="610.486413" style="fill: #2ca02c; stroke: #2ca02c"/>
     <use xlink:href="#mcb67efd45a" x="253.141148" y="607.720881" style="fill: #2ca02c; stroke: #2ca02c"/>
     <use xlink:href="#mcb67efd45a" x="273.165072" y="604.326627" style="fill: #2ca02c; stroke: #2ca02c"/>
     <use xlink:href="#mcb67efd45a" x="293.188995" y="600.872252" style="fill: #2ca02c; stroke: #2ca02c"/>
     <use xlink:href="#mcb67efd45a" x="313.212919" y="596.980191" style="fill: #2ca02c; stroke: #2ca02c"/>
     <use xlink:href="#mcb67efd45a" x="333.236842" y="592.667196" style="fill: #2ca02c; stroke: #2ca02c"/>
     <use xlink:href="#mcb67efd45a" x="353.260766" y="586.533244" style="fill: #2ca02c; stroke: #2ca02c"/>
     <use xlink:href="#mcb67efd45a" x="373.284689" y="581.16203" style="fill: #2ca02c; stroke: #2ca02c"/>
     <use xlink:href="#mcb67efd45a" x="393.308612" y="573.728157" style="fill: #2ca02c; stroke: #2ca02c"/>
     <use xlink:href="#mcb67efd45a" x="413.332536" y="567.333824" style="fill: #2ca02c; stroke: #2ca02c"/>
     <use xlink:href="#mcb67efd45a" x="433.356459" y="561.732086" style="fill: #2ca02c; stroke: #2ca02c"/>
     <use xlink:href="#mcb67efd45a" x="453.380383" y="555.904426" style="fill: #2ca02c; stroke: #2ca02c"/>
     <use xlink:href="#mcb67efd45a" x="473.404306" y="547.126893" style="fill: #2ca02c; stroke: #2ca02c"/>
     <use xlink:href="#mcb67efd45a" x="493.42823" y="534.941028" style="fill: #2ca02c; stroke: #2ca02c"/>
     <use xlink:href="#mcb67efd45a" x="513.452153" y="528.516181" style="fill: #2ca02c; stroke: #2ca02c"/>
     <use xlink:href="#mcb67efd45a" x="533.476077" y="519.219071" style="fill: #2ca02c; stroke: #2ca02c"/>
     <use xlink:href="#mcb67efd45a" x="553.5" y="505.216691" style="fill: #2ca02c; stroke: #2ca02c"/>
     <use xlink:href="#mcb67efd45a" x="573.523923" y="494.355399" style="fill: #2ca02c; stroke: #2ca02c"/>
     <use xlink:href="#mcb67efd45a" x="593.547847" y="482.434115" style="fill: #2ca02c; stroke: #2ca02c"/>
     <use xlink:href="#mcb67efd45a" x="613.57177" y="471.364838" style="fill: #2ca02c; stroke: #2ca02c"/>
     <use xlink:href="#mcb67efd45a" x="633.595694" y="458.932972" style="fill: #2ca02c; stroke: #2ca02c"/>
     <use xlink:href="#mcb67efd45a" x="653.619617" y="448.792874" style="fill: #2ca02c; stroke: #2ca02c"/>
     <use xlink:href="#mcb67efd45a" x="673.643541" y="437.817366" style="fill: #2ca02c; stroke: #2ca02c"/>
     <use xlink:href="#mcb67efd45a" x="693.667464" y="428.052737" style="fill: #2ca02c; stroke: #2ca02c"/>
     <use xlink:href="#mcb67efd45a" x="713.691388" y="406.028143" style="fill: #2ca02c; stroke: #2ca02c"/>
     <use xlink:href="#mcb67efd45a" x="733.715311" y="400.061677" style="fill: #2ca02c; stroke: #2ca02c"/>
     <use xlink:href="#mcb67efd45a" x="753.739234" y="385.444843" style="fill: #2ca02c; stroke: #2ca02c"/>
     <use xlink:href="#mcb67efd45a" x="773.763158" y="371.217579" style="fill: #2ca02c; stroke: #2ca02c"/>
     <use xlink:href="#mcb67efd45a" x="793.787081" y="356.313495" style="fill: #2ca02c; stroke: #2ca02c"/>
     <use xlink:href="#mcb67efd45a" x="813.811005" y="336.538305" style="fill: #2ca02c; stroke: #2ca02c"/>
     <use xlink:href="#mcb67efd45a" x="833.834928" y="319.028379" style="fill: #2ca02c; stroke: #2ca02c"/>
     <use xlink:href="#mcb67efd45a" x="853.858852" y="286.315428" style="fill: #2ca02c; stroke: #2ca02c"/>
     <use xlink:href="#mcb67efd45a" x="873.882775" y="280.716948" style="fill: #2ca02c; stroke: #2ca02c"/>
     <use xlink:href="#mcb67efd45a" x="893.906699" y="262.280869" style="fill: #2ca02c; stroke: #2ca02c"/>
     <use xlink:href="#mcb67efd45a" x="913.930622" y="242.329979" style="fill: #2ca02c; stroke: #2ca02c"/>
     <use xlink:href="#mcb67efd45a" x="933.954545" y="217.750125" style="fill: #2ca02c; stroke: #2ca02c"/>
    </g>
   </g>
   <g id="patch_3">
    <path d="M 135 640.8 
L 135 86.4 
" style="fill: none; stroke: #000000; stroke-width: 0.8; stroke-linejoin: miter; stroke-linecap: square"/>
   </g>
   <g id="patch_4">
    <path d="M 972 640.8 
L 972 86.4 
" style="fill: none; stroke: #000000; stroke-width: 0.8; stroke-linejoin: miter; stroke-linecap: square"/>
   </g>
   <g id="patch_5">
    <path d="M 135 640.8 
L 972 640.8 
" style="fill: none; stroke: #000000; stroke-width: 0.8; stroke-linejoin: miter; stroke-linecap: square"/>
   </g>
   <g id="patch_6">
    <path d="M 135 86.4 
L 972 86.4 
" style="fill: none; stroke: #000000; stroke-width: 0.8; stroke-linejoin: miter; stroke-linecap: square"/>
   </g>
   <g id="text_19">
    <!-- График зависимости времени от размера данных -->
    <g transform="translate(395.19375 80.4) scale(0.12 -0.12)">
     <defs>
      <path id="DejaVuSans-413" d="M 628 0 
L 628 4666 
L 3531 4666 
L 3531 4134 
L 1259 4134 
L 1259 0 
L 628 0 
z
" transform="scale(0.015625)"/>
      <path id="DejaVuSans-444" d="M 947 1747 
Q 947 1013 1173 702 
Q 1400 391 1784 391 
Q 2091 391 2447 916 
L 2447 2578 
Q 2091 3103 1784 3103 
Q 1400 3103 1173 2792 
Q 947 2481 947 1747 
z
M 2447 -1331 
L 2447 447 
Q 2269 153 2064 31 
Q 1859 -91 1600 -91 
Q 1078 -91 714 392 
Q 350 875 350 1734 
Q 350 2594 714 3089 
Q 1078 3584 1600 3584 
Q 1859 3584 2064 3465 
Q 2269 3347 2447 3053 
L 2447 4666 
L 3025 4666 
L 3025 3053 
Q 3203 3347 3408 3465 
Q 3613 3584 3872 3584 
Q 4394 3584 4758 3089 
Q 5122 2594 5122 1734 
Q 5122 875 4758 392 
Q 4394 -91 3872 -91 
Q 3613 -91 3408 31 
Q 3203 153 3025 447 
L 3025 -1331 
L 2447 -1331 
z
M 4525 1747 
Q 4525 2481 4298 2792 
Q 4072 3103 3688 3103 
Q 3381 3103 3025 2578 
L 3025 916 
Q 3381 391 3688 391 
Q 4072 391 4298 702 
Q 4525 1013 4525 1747 
z
" transform="scale(0.015625)"/>
      <path id="DejaVuSans-432" d="M 1156 1613 
L 1156 459 
L 1975 459 
Q 2369 459 2575 607 
Q 2781 756 2781 1038 
Q 2781 1319 2575 1466 
Q 2369 1613 1975 1613 
L 1156 1613 
z
M 1156 3041 
L 1156 2072 
L 1913 2072 
Q 2238 2072 2444 2201 
Q 2650 2331 2650 2563 
Q 2650 2794 2444 2917 
Q 2238 3041 1913 3041 
L 1156 3041 
z
M 581 3500 
L 1950 3500 
Q 2566 3500 2897 3275 
Q 3228 3050 3228 2634 
Q 3228 2313 3059 2123 
Q 2891 1934 2559 1888 
Q 2956 1813 3175 1575 
Q 3394 1338 3394 981 
Q 3394 513 3033 256 
Q 2672 0 2003 0 
L 581 0 
L 581 3500 
z
" transform="scale(0.015625)"/>
      <path id="DejaVuSans-441" d="M 3122 3366 
L 3122 2828 
Q 2878 2963 2633 3030 
Q 2388 3097 2138 3097 
Q 1578 3097 1268 2742 
Q 959 2388 959 1747 
Q 959 1106 1268 751 
Q 1578 397 2138 397 
Q 2388 397 2633 464 
Q 2878 531 3122 666 
L 3122 134 
Q 2881 22 2623 -34 
Q 2366 -91 2075 -91 
Q 1284 -91 818 406 
Q 353 903 353 1747 
Q 353 2603 823 3093 
Q 1294 3584 2113 3584 
Q 2378 3584 2631 3529 
Q 2884 3475 3122 3366 
z
" transform="scale(0.015625)"/>
      <path id="DejaVuSans-43e" d="M 1959 3097 
Q 1497 3097 1228 2736 
Q 959 2375 959 1747 
Q 959 1119 1226 758 
Q 1494 397 1959 397 
Q 2419 397 2687 759 
Q 2956 1122 2956 1747 
Q 2956 2369 2687 2733 
Q 2419 3097 1959 3097 
z
M 1959 3584 
Q 2709 3584 3137 3096 
Q 3566 2609 3566 1747 
Q 3566 888 3137 398 
Q 2709 -91 1959 -91 
Q 1206 -91 779 398 
Q 353 888 353 1747 
Q 353 2609 779 3096 
Q 1206 3584 1959 3584 
z
" transform="scale(0.015625)"/>
     </defs>
     <use xlink:href="#DejaVuSans-413"/>
     <use xlink:href="#DejaVuSans-440" x="60.986328"/>
     <use xlink:href="#DejaVuSans-430" x="124.462891"/>
     <use xlink:href="#DejaVuSans-444" x="185.742188"/>
     <use xlink:href="#DejaVuSans-438" x="271.240234"/>
     <use xlink:href="#DejaVuSans-43a" x="336.230469"/>
     <use xlink:href="#DejaVuSans-20" x="396.630859"/>
     <use xlink:href="#DejaVuSans-437" x="428.417969"/>
     <use xlink:href="#DejaVuSans-430" x="481.591797"/>
     <use xlink:href="#DejaVuSans-432" x="542.871094"/>
     <use xlink:href="#DejaVuSans-438" x="601.806641"/>
     <use xlink:href="#DejaVuSans-441" x="666.796875"/>
     <use xlink:href="#DejaVuSans-438" x="721.777344"/>
     <use xlink:href="#DejaVuSans-43c" x="786.767578"/>
     <use xlink:href="#DejaVuSans-43e" x="862.207031"/>
     <use xlink:href="#DejaVuSans-441" x="923.388672"/>
     <use xlink:href="#DejaVuSans-442" x="978.369141"/>
     <use xlink:href="#DejaVuSans-438" x="1036.621094"/>
     <use xlink:href="#DejaVuSans-20" x="1101.611328"/>
     <use xlink:href="#DejaVuSans-432" x="1133.398438"/>
     <use xlink:href="#DejaVuSans-440" x="1192.333984"/>
     <use xlink:href="#DejaVuSans-435" x="1255.810547"/>
     <use xlink:href="#DejaVuSans-43c" x="1317.333984"/>
     <use xlink:href="#DejaVuSans-435" x="1392.773438"/>
     <use xlink:href="#DejaVuSans-43d" x="1454.296875"/>
     <use xlink:href="#DejaVuSans-438" x="1519.677734"/>
     <use xlink:href="#DejaVuSans-20" x="1584.667969"/>
     <use xlink:href="#DejaVuSans-43e" x="1616.455078"/>
     <use xlink:href="#DejaVuSans-442" x="1677.636719"/>
     <use xlink:href="#DejaVuSans-20" x="1735.888672"/>
     <use xlink:href="#DejaVuSans-440" x="1767.675781"/>
     <use xlink:href="#DejaVuSans-430" x="1831.152344"/>
     <use xlink:href="#DejaVuSans-437" x="1892.431641"/>
     <use xlink:href="#DejaVuSans-43c" x="1945.605469"/>
     <use xlink:href="#DejaVuSans-435" x="2021.044922"/>
     <use xlink:href="#DejaVuSans-440" x="2082.568359"/>
     <use xlink:href="#DejaVuSans-430" x="2146.044922"/>
     <use xlink:href="#DejaVuSans-20" x="2207.324219"/>
     <use xlink:href="#DejaVuSans-434" x="2239.111328"/>
     <use xlink:href="#DejaVuSans-430" x="2308.251953"/>
     <use xlink:href="#DejaVuSans-43d" x="2369.53125"/>
     <use xlink:href="#DejaVuSans-43d" x="2434.912109"/>
     <use xlink:href="#DejaVuSans-44b" x="2500.292969"/>
     <use xlink:href="#DejaVuSans-445" x="2579.248047"/>
    </g>
   </g>
   <g id="legend_1">
    <g id="patch_7">
     <path d="M 142 138.434375 
L 257.7125 138.434375 
Q 259.7125 138.434375 259.7125 136.434375 
L 259.7125 93.4 
Q 259.7125 91.4 257.7125 91.4 
L 142 91.4 
Q 140 91.4 140 93.4 
L 140 136.434375 
Q 140 138.434375 142 138.434375 
z
" style="fill: #ffffff; opacity: 0.8; stroke: #cccccc; stroke-linejoin: miter"/>
    </g>
    <g id="line2d_34">
     <path d="M 144 99.498437 
L 154 99.498437 
L 164 99.498437 
" style="fill: none; stroke: #1f77b4; stroke-linecap: square"/>
     <g>
      <use xlink:href="#m1ad56cba61" x="154" y="99.498437" style="fill: #1f77b4; stroke: #1f77b4"/>
     </g>
    </g>
    <g id="text_20">
     <!-- Indexes -->
     <g transform="translate(172 102.998437) scale(0.1 -0.1)">
      <defs>
       <path id="DejaVuSans-49" d="M 628 4666 
L 1259 4666 
L 1259 0 
L 628 0 
L 628 4666 
z
" transform="scale(0.015625)"/>
       <path id="DejaVuSans-6e" d="M 3513 2113 
L 3513 0 
L 2938 0 
L 2938 2094 
Q 2938 2591 2744 2837 
Q 2550 3084 2163 3084 
Q 1697 3084 1428 2787 
Q 1159 2491 1159 1978 
L 1159 0 
L 581 0 
L 581 3500 
L 1159 3500 
L 1159 2956 
Q 1366 3272 1645 3428 
Q 1925 3584 2291 3584 
Q 2894 3584 3203 3211 
Q 3513 2838 3513 2113 
z
" transform="scale(0.015625)"/>
       <path id="DejaVuSans-64" d="M 2906 2969 
L 2906 4863 
L 3481 4863 
L 3481 0 
L 2906 0 
L 2906 525 
Q 2725 213 2448 61 
Q 2172 -91 1784 -91 
Q 1150 -91 751 415 
Q 353 922 353 1747 
Q 353 2572 751 3078 
Q 1150 3584 1784 3584 
Q 2172 3584 2448 3432 
Q 2725 3281 2906 2969 
z
M 947 1747 
Q 947 1113 1208 752 
Q 1469 391 1925 391 
Q 2381 391 2643 752 
Q 2906 1113 2906 1747 
Q 2906 2381 2643 2742 
Q 2381 3103 1925 3103 
Q 1469 3103 1208 2742 
Q 947 2381 947 1747 
z
" transform="scale(0.015625)"/>
       <path id="DejaVuSans-78" d="M 3513 3500 
L 2247 1797 
L 3578 0 
L 2900 0 
L 1881 1375 
L 863 0 
L 184 0 
L 1544 1831 
L 300 3500 
L 978 3500 
L 1906 2253 
L 2834 3500 
L 3513 3500 
z
" transform="scale(0.015625)"/>
       <path id="DejaVuSans-73" d="M 2834 3397 
L 2834 2853 
Q 2591 2978 2328 3040 
Q 2066 3103 1784 3103 
Q 1356 3103 1142 2972 
Q 928 2841 928 2578 
Q 928 2378 1081 2264 
Q 1234 2150 1697 2047 
L 1894 2003 
Q 2506 1872 2764 1633 
Q 3022 1394 3022 966 
Q 3022 478 2636 193 
Q 2250 -91 1575 -91 
Q 1294 -91 989 -36 
Q 684 19 347 128 
L 347 722 
Q 666 556 975 473 
Q 1284 391 1588 391 
Q 1994 391 2212 530 
Q 2431 669 2431 922 
Q 2431 1156 2273 1281 
Q 2116 1406 1581 1522 
L 1381 1569 
Q 847 1681 609 1914 
Q 372 2147 372 2553 
Q 372 3047 722 3315 
Q 1072 3584 1716 3584 
Q 2034 3584 2315 3537 
Q 2597 3491 2834 3397 
z
" transform="scale(0.015625)"/>
      </defs>
      <use xlink:href="#DejaVuSans-49"/>
      <use xlink:href="#DejaVuSans-6e" x="29.492188"/>
      <use xlink:href="#DejaVuSans-64" x="92.871094"/>
      <use xlink:href="#DejaVuSans-65" x="156.347656"/>
      <use xlink:href="#DejaVuSans-78" x="216.121094"/>
      <use xlink:href="#DejaVuSans-65" x="272.175781"/>
      <use xlink:href="#DejaVuSans-73" x="333.699219"/>
     </g>
    </g>
    <g id="line2d_35">
     <path d="M 144 114.176562 
L 154 114.176562 
L 164 114.176562 
" style="fill: none; stroke: #ff7f0e; stroke-linecap: square"/>
     <g>
      <use xlink:href="#m3cc0b3ae11" x="154" y="114.176562" style="fill: #ff7f0e; stroke: #ff7f0e"/>
     </g>
    </g>
    <g id="text_21">
     <!-- Replace pointers -->
     <g transform="translate(172 117.676562) scale(0.1 -0.1)">
      <defs>
       <path id="DejaVuSans-52" d="M 2841 2188 
Q 3044 2119 3236 1894 
Q 3428 1669 3622 1275 
L 4263 0 
L 3584 0 
L 2988 1197 
Q 2756 1666 2539 1819 
Q 2322 1972 1947 1972 
L 1259 1972 
L 1259 0 
L 628 0 
L 628 4666 
L 2053 4666 
Q 2853 4666 3247 4331 
Q 3641 3997 3641 3322 
Q 3641 2881 3436 2590 
Q 3231 2300 2841 2188 
z
M 1259 4147 
L 1259 2491 
L 2053 2491 
Q 2509 2491 2742 2702 
Q 2975 2913 2975 3322 
Q 2975 3731 2742 3939 
Q 2509 4147 2053 4147 
L 1259 4147 
z
" transform="scale(0.015625)"/>
       <path id="DejaVuSans-70" d="M 1159 525 
L 1159 -1331 
L 581 -1331 
L 581 3500 
L 1159 3500 
L 1159 2969 
Q 1341 3281 1617 3432 
Q 1894 3584 2278 3584 
Q 2916 3584 3314 3078 
Q 3713 2572 3713 1747 
Q 3713 922 3314 415 
Q 2916 -91 2278 -91 
Q 1894 -91 1617 61 
Q 1341 213 1159 525 
z
M 3116 1747 
Q 3116 2381 2855 2742 
Q 2594 3103 2138 3103 
Q 1681 3103 1420 2742 
Q 1159 2381 1159 1747 
Q 1159 1113 1420 752 
Q 1681 391 2138 391 
Q 2594 391 2855 752 
Q 3116 1113 3116 1747 
z
" transform="scale(0.015625)"/>
       <path id="DejaVuSans-6c" d="M 603 4863 
L 1178 4863 
L 1178 0 
L 603 0 
L 603 4863 
z
" transform="scale(0.015625)"/>
       <path id="DejaVuSans-61" d="M 2194 1759 
Q 1497 1759 1228 1600 
Q 959 1441 959 1056 
Q 959 750 1161 570 
Q 1363 391 1709 391 
Q 2188 391 2477 730 
Q 2766 1069 2766 1631 
L 2766 1759 
L 2194 1759 
z
M 3341 1997 
L 3341 0 
L 2766 0 
L 2766 531 
Q 2569 213 2275 61 
Q 1981 -91 1556 -91 
Q 1019 -91 701 211 
Q 384 513 384 1019 
Q 384 1609 779 1909 
Q 1175 2209 1959 2209 
L 2766 2209 
L 2766 2266 
Q 2766 2663 2505 2880 
Q 2244 3097 1772 3097 
Q 1472 3097 1187 3025 
Q 903 2953 641 2809 
L 641 3341 
Q 956 3463 1253 3523 
Q 1550 3584 1831 3584 
Q 2591 3584 2966 3190 
Q 3341 2797 3341 1997 
z
" transform="scale(0.015625)"/>
       <path id="DejaVuSans-63" d="M 3122 3366 
L 3122 2828 
Q 2878 2963 2633 3030 
Q 2388 3097 2138 3097 
Q 1578 3097 1268 2742 
Q 959 2388 959 1747 
Q 959 1106 1268 751 
Q 1578 397 2138 397 
Q 2388 397 2633 464 
Q 2878 531 3122 666 
L 3122 134 
Q 2881 22 2623 -34 
Q 2366 -91 2075 -91 
Q 1284 -91 818 406 
Q 353 903 353 1747 
Q 353 2603 823 3093 
Q 1294 3584 2113 3584 
Q 2378 3584 2631 3529 
Q 2884 3475 3122 3366 
z
" transform="scale(0.015625)"/>
       <path id="DejaVuSans-6f" d="M 1959 3097 
Q 1497 3097 1228 2736 
Q 959 2375 959 1747 
Q 959 1119 1226 758 
Q 1494 397 1959 397 
Q 2419 397 2687 759 
Q 2956 1122 2956 1747 
Q 2956 2369 2687 2733 
Q 2419 3097 1959 3097 
z
M 1959 3584 
Q 2709 3584 3137 3096 
Q 3566 2609 3566 1747 
Q 3566 888 3137 398 
Q 2709 -91 1959 -91 
Q 1206 -91 779 398 
Q 353 888 353 1747 
Q 353 2609 779 3096 
Q 1206 3584 1959 3584 
z
" transform="scale(0.015625)"/>
       <path id="DejaVuSans-69" d="M 603 3500 
L 1178 3500 
L 1178 0 
L 603 0 
L 603 3500 
z
M 603 4863 
L 1178 4863 
L 1178 4134 
L 603 4134 
L 603 4863 
z
" transform="scale(0.015625)"/>
       <path id="DejaVuSans-74" d="M 1172 4494 
L 1172 3500 
L 2356 3500 
L 2356 3053 
L 1172 3053 
L 1172 1153 
Q 1172 725 1289 603 
Q 1406 481 1766 481 
L 2356 481 
L 2356 0 
L 1766 0 
Q 1100 0 847 248 
Q 594 497 594 1153 
L 594 3053 
L 172 3053 
L 172 3500 
L 594 3500 
L 594 4494 
L 1172 4494 
z
" transform="scale(0.015625)"/>
       <path id="DejaVuSans-72" d="M 2631 2963 
Q 2534 3019 2420 3045 
Q 2306 3072 2169 3072 
Q 1681 3072 1420 2755 
Q 1159 2438 1159 1844 
L 1159 0 
L 581 0 
L 581 3500 
L 1159 3500 
L 1159 2956 
Q 1341 3275 1631 3429 
Q 1922 3584 2338 3584 
Q 2397 3584 2469 3576 
Q 2541 3569 2628 3553 
L 2631 2963 
z
" transform="scale(0.015625)"/>
      </defs>
      <use xlink:href="#DejaVuSans-52"/>
      <use xlink:href="#DejaVuSans-65" x="64.982422"/>
      <use xlink:href="#DejaVuSans-70" x="126.505859"/>
      <use xlink:href="#DejaVuSans-6c" x="189.982422"/>
      <use xlink:href="#DejaVuSans-61" x="217.765625"/>
      <use xlink:href="#DejaVuSans-63" x="279.044922"/>
      <use xlink:href="#DejaVuSans-65" x="334.025391"/>
      <use xlink:href="#DejaVuSans-20" x="395.548828"/>
      <use xlink:href="#DejaVuSans-70" x="427.335938"/>
      <use xlink:href="#DejaVuSans-6f" x="490.8125"/>
      <use xlink:href="#DejaVuSans-69" x="551.994141"/>
      <use xlink:href="#DejaVuSans-6e" x="579.777344"/>
      <use xlink:href="#DejaVuSans-74" x="643.15625"/>
      <use xlink:href="#DejaVuSans-65" x="682.365234"/>
      <use xlink:href="#DejaVuSans-72" x="743.888672"/>
      <use xlink:href="#DejaVuSans-73" x="785.001953"/>
     </g>
    </g>
    <g id="line2d_36">
     <path d="M 144 128.854687 
L 154 128.854687 
L 164 128.854687 
" style="fill: none; stroke: #2ca02c; stroke-linecap: square"/>
     <g>
      <use xlink:href="#mcb67efd45a" x="154" y="128.854687" style="fill: #2ca02c; stroke: #2ca02c"/>
     </g>
    </g>
    <g id="text_22">
     <!-- Pointers -->
     <g transform="translate(172 132.354687) scale(0.1 -0.1)">
      <defs>
       <path id="DejaVuSans-50" d="M 1259 4147 
L 1259 2394 
L 2053 2394 
Q 2494 2394 2734 2622 
Q 2975 2850 2975 3272 
Q 2975 3691 2734 3919 
Q 2494 4147 2053 4147 
L 1259 4147 
z
M 628 4666 
L 2053 4666 
Q 2838 4666 3239 4311 
Q 3641 3956 3641 3272 
Q 3641 2581 3239 2228 
Q 2838 1875 2053 1875 
L 1259 1875 
L 1259 0 
L 628 0 
L 628 4666 
z
" transform="scale(0.015625)"/>
      </defs>
      <use xlink:href="#DejaVuSans-50"/>
      <use xlink:href="#DejaVuSans-6f" x="56.677734"/>
      <use xlink:href="#DejaVuSans-69" x="117.859375"/>
      <use xlink:href="#DejaVuSans-6e" x="145.642578"/>
      <use xlink:href="#DejaVuSans-74" x="209.021484"/>
      <use xlink:href="#DejaVuSans-65" x="248.230469"/>
      <use xlink:href="#DejaVuSans-72" x="309.753906"/>
      <use xlink:href="#DejaVuSans-73" x="350.867188"/>
     </g>
    </g>
   </g>
  </g>
 </g>
 <defs>
  <clipPath id="pdc6f0e3e30">
   <rect x="135" y="86.4" width="837" height="554.4"/>
  </clipPath>
 </defs>
</svg>
