<?xml version="1.0" encoding="utf-8" standalone="no"?>
<!DOCTYPE svg PUBLIC "-//W3C//DTD SVG 1.1//EN"
  "http://www.w3.org/Graphics/SVG/1.1/DTD/svg11.dtd">
<svg xmlns:xlink="http://www.w3.org/1999/xlink" width="1080pt" height="720pt" viewBox="0 0 1080 720" xmlns="http://www.w3.org/2000/svg" version="1.1">
 <metadata>
  <rdf:RDF xmlns:dc="http://purl.org/dc/elements/1.1/" xmlns:cc="http://creativecommons.org/ns#" xmlns:rdf="http://www.w3.org/1999/02/22-rdf-syntax-ns#">
   <cc:Work>
    <dc:type rdf:resource="http://purl.org/dc/dcmitype/StillImage"/>
    <dc:date>2024-05-19T22:49:48.187646</dc:date>
    <dc:format>image/svg+xml</dc:format>
    <dc:creator>
     <cc:Agent>
      <dc:title>Matplotlib v3.8.4, https://matplotlib.org/</dc:title>
     </cc:Agent>
    </dc:creator>
   </cc:Work>
  </rdf:RDF>
 </metadata>
 <defs>
  <style type="text/css">*{stroke-linejoin: round; stroke-linecap: butt}</style>
 </defs>
 <g id="figure_1">
  <g id="patch_1">
   <path d="M 0 720 
L 1080 720 
L 1080 0 
L 0 0 
z
" style="fill: #ffffff"/>
  </g>
  <g id="axes_1">
   <g id="patch_2">
    <path d="M 135 640.8 
L 972 640.8 
L 972 86.4 
L 135 86.4 
z
" style="fill: #ffffff"/>
   </g>
   <g id="matplotlib.axis_1">
    <g id="xtick_1">
     <g id="line2d_1">
      <path d="M 162.477273 640.8 
L 162.477273 86.4 
" clip-path="url(#p5c7043121c)" style="fill: none; stroke: #b0b0b0; stroke-width: 0.8; stroke-linecap: square"/>
     </g>
     <g id="line2d_2">
      <defs>
       <path id="m4ee1259bf9" d="M 0 0 
L 0 3.5 
" style="stroke: #000000; stroke-width: 0.8"/>
      </defs>
      <g>
       <use xlink:href="#m4ee1259bf9" x="162.477273" y="640.8" style="stroke: #000000; stroke-width: 0.8"/>
      </g>
     </g>
     <g id="text_1">
      <!-- 0 -->
      <g transform="translate(159.296023 655.398438) scale(0.1 -0.1)">
       <defs>
        <path id="DejaVuSans-30" d="M 2034 4250 
Q 1547 4250 1301 3770 
Q 1056 3291 1056 2328 
Q 1056 1369 1301 889 
Q 1547 409 2034 409 
Q 2525 409 2770 889 
Q 3016 1369 3016 2328 
Q 3016 3291 2770 3770 
Q 2525 4250 2034 4250 
z
M 2034 4750 
Q 2819 4750 3233 4129 
Q 3647 3509 3647 2328 
Q 3647 1150 3233 529 
Q 2819 -91 2034 -91 
Q 1250 -91 836 529 
Q 422 1150 422 2328 
Q 422 3509 836 4129 
Q 1250 4750 2034 4750 
z
" transform="scale(0.015625)"/>
       </defs>
       <use xlink:href="#DejaVuSans-30"/>
      </g>
     </g>
    </g>
    <g id="xtick_2">
     <g id="line2d_3">
      <path d="M 268.159091 640.8 
L 268.159091 86.4 
" clip-path="url(#p5c7043121c)" style="fill: none; stroke: #b0b0b0; stroke-width: 0.8; stroke-linecap: square"/>
     </g>
     <g id="line2d_4">
      <g>
       <use xlink:href="#m4ee1259bf9" x="268.159091" y="640.8" style="stroke: #000000; stroke-width: 0.8"/>
      </g>
     </g>
     <g id="text_2">
      <!-- 5000 -->
      <g transform="translate(255.434091 655.398438) scale(0.1 -0.1)">
       <defs>
        <path id="DejaVuSans-35" d="M 691 4666 
L 3169 4666 
L 3169 4134 
L 1269 4134 
L 1269 2991 
Q 1406 3038 1543 3061 
Q 1681 3084 1819 3084 
Q 2600 3084 3056 2656 
Q 3513 2228 3513 1497 
Q 3513 744 3044 326 
Q 2575 -91 1722 -91 
Q 1428 -91 1123 -41 
Q 819 9 494 109 
L 494 744 
Q 775 591 1075 516 
Q 1375 441 1709 441 
Q 2250 441 2565 725 
Q 2881 1009 2881 1497 
Q 2881 1984 2565 2268 
Q 2250 2553 1709 2553 
Q 1456 2553 1204 2497 
Q 953 2441 691 2322 
L 691 4666 
z
" transform="scale(0.015625)"/>
       </defs>
       <use xlink:href="#DejaVuSans-35"/>
       <use xlink:href="#DejaVuSans-30" x="63.623047"/>
       <use xlink:href="#DejaVuSans-30" x="127.246094"/>
       <use xlink:href="#DejaVuSans-30" x="190.869141"/>
      </g>
     </g>
    </g>
    <g id="xtick_3">
     <g id="line2d_5">
      <path d="M 373.840909 640.8 
L 373.840909 86.4 
" clip-path="url(#p5c7043121c)" style="fill: none; stroke: #b0b0b0; stroke-width: 0.8; stroke-linecap: square"/>
     </g>
     <g id="line2d_6">
      <g>
       <use xlink:href="#m4ee1259bf9" x="373.840909" y="640.8" style="stroke: #000000; stroke-width: 0.8"/>
      </g>
     </g>
     <g id="text_3">
      <!-- 10000 -->
      <g transform="translate(357.934659 655.398438) scale(0.1 -0.1)">
       <defs>
        <path id="DejaVuSans-31" d="M 794 531 
L 1825 531 
L 1825 4091 
L 703 3866 
L 703 4441 
L 1819 4666 
L 2450 4666 
L 2450 531 
L 3481 531 
L 3481 0 
L 794 0 
L 794 531 
z
" transform="scale(0.015625)"/>
       </defs>
       <use xlink:href="#DejaVuSans-31"/>
       <use xlink:href="#DejaVuSans-30" x="63.623047"/>
       <use xlink:href="#DejaVuSans-30" x="127.246094"/>
       <use xlink:href="#DejaVuSans-30" x="190.869141"/>
       <use xlink:href="#DejaVuSans-30" x="254.492188"/>
      </g>
     </g>
    </g>
    <g id="xtick_4">
     <g id="line2d_7">
      <path d="M 479.522727 640.8 
L 479.522727 86.4 
" clip-path="url(#p5c7043121c)" style="fill: none; stroke: #b0b0b0; stroke-width: 0.8; stroke-linecap: square"/>
     </g>
     <g id="line2d_8">
      <g>
       <use xlink:href="#m4ee1259bf9" x="479.522727" y="640.8" style="stroke: #000000; stroke-width: 0.8"/>
      </g>
     </g>
     <g id="text_4">
      <!-- 15000 -->
      <g transform="translate(463.616477 655.398438) scale(0.1 -0.1)">
       <use xlink:href="#DejaVuSans-31"/>
       <use xlink:href="#DejaVuSans-35" x="63.623047"/>
       <use xlink:href="#DejaVuSans-30" x="127.246094"/>
       <use xlink:href="#DejaVuSans-30" x="190.869141"/>
       <use xlink:href="#DejaVuSans-30" x="254.492188"/>
      </g>
     </g>
    </g>
    <g id="xtick_5">
     <g id="line2d_9">
      <path d="M 585.204545 640.8 
L 585.204545 86.4 
" clip-path="url(#p5c7043121c)" style="fill: none; stroke: #b0b0b0; stroke-width: 0.8; stroke-linecap: square"/>
     </g>
     <g id="line2d_10">
      <g>
       <use xlink:href="#m4ee1259bf9" x="585.204545" y="640.8" style="stroke: #000000; stroke-width: 0.8"/>
      </g>
     </g>
     <g id="text_5">
      <!-- 20000 -->
      <g transform="translate(569.298295 655.398438) scale(0.1 -0.1)">
       <defs>
        <path id="DejaVuSans-32" d="M 1228 531 
L 3431 531 
L 3431 0 
L 469 0 
L 469 531 
Q 828 903 1448 1529 
Q 2069 2156 2228 2338 
Q 2531 2678 2651 2914 
Q 2772 3150 2772 3378 
Q 2772 3750 2511 3984 
Q 2250 4219 1831 4219 
Q 1534 4219 1204 4116 
Q 875 4013 500 3803 
L 500 4441 
Q 881 4594 1212 4672 
Q 1544 4750 1819 4750 
Q 2544 4750 2975 4387 
Q 3406 4025 3406 3419 
Q 3406 3131 3298 2873 
Q 3191 2616 2906 2266 
Q 2828 2175 2409 1742 
Q 1991 1309 1228 531 
z
" transform="scale(0.015625)"/>
       </defs>
       <use xlink:href="#DejaVuSans-32"/>
       <use xlink:href="#DejaVuSans-30" x="63.623047"/>
       <use xlink:href="#DejaVuSans-30" x="127.246094"/>
       <use xlink:href="#DejaVuSans-30" x="190.869141"/>
       <use xlink:href="#DejaVuSans-30" x="254.492188"/>
      </g>
     </g>
    </g>
    <g id="xtick_6">
     <g id="line2d_11">
      <path d="M 690.886364 640.8 
L 690.886364 86.4 
" clip-path="url(#p5c7043121c)" style="fill: none; stroke: #b0b0b0; stroke-width: 0.8; stroke-linecap: square"/>
     </g>
     <g id="line2d_12">
      <g>
       <use xlink:href="#m4ee1259bf9" x="690.886364" y="640.8" style="stroke: #000000; stroke-width: 0.8"/>
      </g>
     </g>
     <g id="text_6">
      <!-- 25000 -->
      <g transform="translate(674.980114 655.398438) scale(0.1 -0.1)">
       <use xlink:href="#DejaVuSans-32"/>
       <use xlink:href="#DejaVuSans-35" x="63.623047"/>
       <use xlink:href="#DejaVuSans-30" x="127.246094"/>
       <use xlink:href="#DejaVuSans-30" x="190.869141"/>
       <use xlink:href="#DejaVuSans-30" x="254.492188"/>
      </g>
     </g>
    </g>
    <g id="xtick_7">
     <g id="line2d_13">
      <path d="M 796.568182 640.8 
L 796.568182 86.4 
" clip-path="url(#p5c7043121c)" style="fill: none; stroke: #b0b0b0; stroke-width: 0.8; stroke-linecap: square"/>
     </g>
     <g id="line2d_14">
      <g>
       <use xlink:href="#m4ee1259bf9" x="796.568182" y="640.8" style="stroke: #000000; stroke-width: 0.8"/>
      </g>
     </g>
     <g id="text_7">
      <!-- 30000 -->
      <g transform="translate(780.661932 655.398438) scale(0.1 -0.1)">
       <defs>
        <path id="DejaVuSans-33" d="M 2597 2516 
Q 3050 2419 3304 2112 
Q 3559 1806 3559 1356 
Q 3559 666 3084 287 
Q 2609 -91 1734 -91 
Q 1441 -91 1130 -33 
Q 819 25 488 141 
L 488 750 
Q 750 597 1062 519 
Q 1375 441 1716 441 
Q 2309 441 2620 675 
Q 2931 909 2931 1356 
Q 2931 1769 2642 2001 
Q 2353 2234 1838 2234 
L 1294 2234 
L 1294 2753 
L 1863 2753 
Q 2328 2753 2575 2939 
Q 2822 3125 2822 3475 
Q 2822 3834 2567 4026 
Q 2313 4219 1838 4219 
Q 1578 4219 1281 4162 
Q 984 4106 628 3988 
L 628 4550 
Q 988 4650 1302 4700 
Q 1616 4750 1894 4750 
Q 2613 4750 3031 4423 
Q 3450 4097 3450 3541 
Q 3450 3153 3228 2886 
Q 3006 2619 2597 2516 
z
" transform="scale(0.015625)"/>
       </defs>
       <use xlink:href="#DejaVuSans-33"/>
       <use xlink:href="#DejaVuSans-30" x="63.623047"/>
       <use xlink:href="#DejaVuSans-30" x="127.246094"/>
       <use xlink:href="#DejaVuSans-30" x="190.869141"/>
       <use xlink:href="#DejaVuSans-30" x="254.492188"/>
      </g>
     </g>
    </g>
    <g id="xtick_8">
     <g id="line2d_15">
      <path d="M 902.25 640.8 
L 902.25 86.4 
" clip-path="url(#p5c7043121c)" style="fill: none; stroke: #b0b0b0; stroke-width: 0.8; stroke-linecap: square"/>
     </g>
     <g id="line2d_16">
      <g>
       <use xlink:href="#m4ee1259bf9" x="902.25" y="640.8" style="stroke: #000000; stroke-width: 0.8"/>
      </g>
     </g>
     <g id="text_8">
      <!-- 35000 -->
      <g transform="translate(886.34375 655.398438) scale(0.1 -0.1)">
       <use xlink:href="#DejaVuSans-33"/>
       <use xlink:href="#DejaVuSans-35" x="63.623047"/>
       <use xlink:href="#DejaVuSans-30" x="127.246094"/>
       <use xlink:href="#DejaVuSans-30" x="190.869141"/>
       <use xlink:href="#DejaVuSans-30" x="254.492188"/>
      </g>
     </g>
    </g>
    <g id="text_9">
     <!-- Размер данных -->
     <g transform="translate(513.185156 669.076563) scale(0.1 -0.1)">
      <defs>
       <path id="DejaVuSans-420" d="M 1259 4147 
L 1259 2394 
L 2053 2394 
Q 2494 2394 2734 2622 
Q 2975 2850 2975 3272 
Q 2975 3691 2734 3919 
Q 2494 4147 2053 4147 
L 1259 4147 
z
M 628 4666 
L 2053 4666 
Q 2838 4666 3239 4311 
Q 3641 3956 3641 3272 
Q 3641 2581 3239 2228 
Q 2838 1875 2053 1875 
L 1259 1875 
L 1259 0 
L 628 0 
L 628 4666 
z
" transform="scale(0.015625)"/>
       <path id="DejaVuSans-430" d="M 2194 1759 
Q 1497 1759 1228 1600 
Q 959 1441 959 1056 
Q 959 750 1161 570 
Q 1363 391 1709 391 
Q 2188 391 2477 730 
Q 2766 1069 2766 1631 
L 2766 1759 
L 2194 1759 
z
M 3341 1997 
L 3341 0 
L 2766 0 
L 2766 531 
Q 2569 213 2275 61 
Q 1981 -91 1556 -91 
Q 1019 -91 701 211 
Q 384 513 384 1019 
Q 384 1609 779 1909 
Q 1175 2209 1959 2209 
L 2766 2209 
L 2766 2266 
Q 2766 2663 2505 2880 
Q 2244 3097 1772 3097 
Q 1472 3097 1187 3025 
Q 903 2953 641 2809 
L 641 3341 
Q 956 3463 1253 3523 
Q 1550 3584 1831 3584 
Q 2591 3584 2966 3190 
Q 3341 2797 3341 1997 
z
" transform="scale(0.015625)"/>
       <path id="DejaVuSans-437" d="M 2206 1888 
Q 2594 1813 2809 1584 
Q 3025 1356 3025 1019 
Q 3025 478 2622 193 
Q 2219 -91 1475 -91 
Q 1225 -91 961 -47 
Q 697 -3 416 84 
L 416 619 
Q 638 503 903 445 
Q 1169 388 1459 388 
Q 1931 388 2195 563 
Q 2459 738 2459 1019 
Q 2459 1294 2225 1461 
Q 1991 1628 1563 1628 
L 1100 1628 
L 1100 2103 
L 1584 2103 
Q 1947 2103 2158 2242 
Q 2369 2381 2369 2600 
Q 2369 2800 2151 2944 
Q 1934 3088 1563 3088 
Q 1341 3088 1089 3047 
Q 838 3006 534 2916 
L 534 3438 
Q 841 3513 1106 3550 
Q 1372 3588 1609 3588 
Q 2222 3588 2576 3342 
Q 2931 3097 2931 2656 
Q 2931 2366 2743 2164 
Q 2556 1963 2206 1888 
z
" transform="scale(0.015625)"/>
       <path id="DejaVuSans-43c" d="M 581 3500 
L 1422 3500 
L 2416 1156 
L 3413 3500 
L 4247 3500 
L 4247 0 
L 3669 0 
L 3669 2950 
L 2703 672 
L 2128 672 
L 1159 2950 
L 1159 0 
L 581 0 
L 581 3500 
z
" transform="scale(0.015625)"/>
       <path id="DejaVuSans-435" d="M 3597 1894 
L 3597 1613 
L 953 1613 
Q 991 1019 1311 708 
Q 1631 397 2203 397 
Q 2534 397 2845 478 
Q 3156 559 3463 722 
L 3463 178 
Q 3153 47 2828 -22 
Q 2503 -91 2169 -91 
Q 1331 -91 842 396 
Q 353 884 353 1716 
Q 353 2575 817 3079 
Q 1281 3584 2069 3584 
Q 2775 3584 3186 3129 
Q 3597 2675 3597 1894 
z
M 3022 2063 
Q 3016 2534 2758 2815 
Q 2500 3097 2075 3097 
Q 1594 3097 1305 2825 
Q 1016 2553 972 2059 
L 3022 2063 
z
" transform="scale(0.015625)"/>
       <path id="DejaVuSans-440" d="M 1159 525 
L 1159 -1331 
L 581 -1331 
L 581 3500 
L 1159 3500 
L 1159 2969 
Q 1341 3281 1617 3432 
Q 1894 3584 2278 3584 
Q 2916 3584 3314 3078 
Q 3713 2572 3713 1747 
Q 3713 922 3314 415 
Q 2916 -91 2278 -91 
Q 1894 -91 1617 61 
Q 1341 213 1159 525 
z
M 3116 1747 
Q 3116 2381 2855 2742 
Q 2594 3103 2138 3103 
Q 1681 3103 1420 2742 
Q 1159 2381 1159 1747 
Q 1159 1113 1420 752 
Q 1681 391 2138 391 
Q 2594 391 2855 752 
Q 3116 1113 3116 1747 
z
" transform="scale(0.015625)"/>
       <path id="DejaVuSans-20" transform="scale(0.015625)"/>
       <path id="DejaVuSans-434" d="M 1384 459 
L 3053 459 
L 3053 3041 
L 1844 3041 
L 1844 2603 
Q 1844 1316 1475 628 
L 1384 459 
z
M 550 459 
Q 834 584 959 850 
Q 1266 1509 1266 2838 
L 1266 3500 
L 3631 3500 
L 3631 459 
L 4091 459 
L 4091 -884 
L 3631 -884 
L 3631 0 
L 794 0 
L 794 -884 
L 334 -884 
L 334 459 
L 550 459 
z
" transform="scale(0.015625)"/>
       <path id="DejaVuSans-43d" d="M 581 3500 
L 1159 3500 
L 1159 2072 
L 3025 2072 
L 3025 3500 
L 3603 3500 
L 3603 0 
L 3025 0 
L 3025 1613 
L 1159 1613 
L 1159 0 
L 581 0 
L 581 3500 
z
" transform="scale(0.015625)"/>
       <path id="DejaVuSans-44b" d="M 3907 3500 
L 4482 3500 
L 4482 0 
L 3907 0 
L 3907 3500 
z
M 4195 3584 
L 4195 3584 
z
M 2781 1038 
Q 2781 1319 2576 1466 
Q 2372 1613 1978 1613 
L 1159 1613 
L 1159 459 
L 1978 459 
Q 2372 459 2576 607 
Q 2781 756 2781 1038 
z
M 581 3500 
L 1159 3500 
L 1159 2072 
L 2003 2072 
Q 2672 2072 3033 1817 
Q 3394 1563 3394 1038 
Q 3394 513 3033 256 
Q 2672 0 2003 0 
L 581 0 
L 581 3500 
z
" transform="scale(0.015625)"/>
       <path id="DejaVuSans-445" d="M 3513 3500 
L 2247 1797 
L 3578 0 
L 2900 0 
L 1881 1375 
L 863 0 
L 184 0 
L 1544 1831 
L 300 3500 
L 978 3500 
L 1906 2253 
L 2834 3500 
L 3513 3500 
z
" transform="scale(0.015625)"/>
      </defs>
      <use xlink:href="#DejaVuSans-420"/>
      <use xlink:href="#DejaVuSans-430" x="60.302734"/>
      <use xlink:href="#DejaVuSans-437" x="121.582031"/>
      <use xlink:href="#DejaVuSans-43c" x="174.755859"/>
      <use xlink:href="#DejaVuSans-435" x="250.195312"/>
      <use xlink:href="#DejaVuSans-440" x="311.71875"/>
      <use xlink:href="#DejaVuSans-20" x="375.195312"/>
      <use xlink:href="#DejaVuSans-434" x="406.982422"/>
      <use xlink:href="#DejaVuSans-430" x="476.123047"/>
      <use xlink:href="#DejaVuSans-43d" x="537.402344"/>
      <use xlink:href="#DejaVuSans-43d" x="602.783203"/>
      <use xlink:href="#DejaVuSans-44b" x="668.164062"/>
      <use xlink:href="#DejaVuSans-445" x="747.119141"/>
     </g>
    </g>
   </g>
   <g id="matplotlib.axis_2">
    <g id="ytick_1">
     <g id="line2d_17">
      <path d="M 135 615.681644 
L 972 615.681644 
" clip-path="url(#p5c7043121c)" style="fill: none; stroke: #b0b0b0; stroke-width: 0.8; stroke-linecap: square"/>
     </g>
     <g id="line2d_18">
      <defs>
       <path id="mec65ba22ea" d="M 0 0 
L -3.5 0 
" style="stroke: #000000; stroke-width: 0.8"/>
      </defs>
      <g>
       <use xlink:href="#mec65ba22ea" x="135" y="615.681644" style="stroke: #000000; stroke-width: 0.8"/>
      </g>
     </g>
     <g id="text_10">
      <!-- 0 -->
      <g transform="translate(121.6375 619.480862) scale(0.1 -0.1)">
       <use xlink:href="#DejaVuSans-30"/>
      </g>
     </g>
    </g>
    <g id="ytick_2">
     <g id="line2d_19">
      <path d="M 135 511.468885 
L 972 511.468885 
" clip-path="url(#p5c7043121c)" style="fill: none; stroke: #b0b0b0; stroke-width: 0.8; stroke-linecap: square"/>
     </g>
     <g id="line2d_20">
      <g>
       <use xlink:href="#mec65ba22ea" x="135" y="511.468885" style="stroke: #000000; stroke-width: 0.8"/>
      </g>
     </g>
     <g id="text_11">
      <!-- 100 -->
      <g transform="translate(108.9125 515.268104) scale(0.1 -0.1)">
       <use xlink:href="#DejaVuSans-31"/>
       <use xlink:href="#DejaVuSans-30" x="63.623047"/>
       <use xlink:href="#DejaVuSans-30" x="127.246094"/>
      </g>
     </g>
    </g>
    <g id="ytick_3">
     <g id="line2d_21">
      <path d="M 135 407.256126 
L 972 407.256126 
" clip-path="url(#p5c7043121c)" style="fill: none; stroke: #b0b0b0; stroke-width: 0.8; stroke-linecap: square"/>
     </g>
     <g id="line2d_22">
      <g>
       <use xlink:href="#mec65ba22ea" x="135" y="407.256126" style="stroke: #000000; stroke-width: 0.8"/>
      </g>
     </g>
     <g id="text_12">
      <!-- 200 -->
      <g transform="translate(108.9125 411.055345) scale(0.1 -0.1)">
       <use xlink:href="#DejaVuSans-32"/>
       <use xlink:href="#DejaVuSans-30" x="63.623047"/>
       <use xlink:href="#DejaVuSans-30" x="127.246094"/>
      </g>
     </g>
    </g>
    <g id="ytick_4">
     <g id="line2d_23">
      <path d="M 135 303.043368 
L 972 303.043368 
" clip-path="url(#p5c7043121c)" style="fill: none; stroke: #b0b0b0; stroke-width: 0.8; stroke-linecap: square"/>
     </g>
     <g id="line2d_24">
      <g>
       <use xlink:href="#mec65ba22ea" x="135" y="303.043368" style="stroke: #000000; stroke-width: 0.8"/>
      </g>
     </g>
     <g id="text_13">
      <!-- 300 -->
      <g transform="translate(108.9125 306.842586) scale(0.1 -0.1)">
       <use xlink:href="#DejaVuSans-33"/>
       <use xlink:href="#DejaVuSans-30" x="63.623047"/>
       <use xlink:href="#DejaVuSans-30" x="127.246094"/>
      </g>
     </g>
    </g>
    <g id="ytick_5">
     <g id="line2d_25">
      <path d="M 135 198.830609 
L 972 198.830609 
" clip-path="url(#p5c7043121c)" style="fill: none; stroke: #b0b0b0; stroke-width: 0.8; stroke-linecap: square"/>
     </g>
     <g id="line2d_26">
      <g>
       <use xlink:href="#mec65ba22ea" x="135" y="198.830609" style="stroke: #000000; stroke-width: 0.8"/>
      </g>
     </g>
     <g id="text_14">
      <!-- 400 -->
      <g transform="translate(108.9125 202.629828) scale(0.1 -0.1)">
       <defs>
        <path id="DejaVuSans-34" d="M 2419 4116 
L 825 1625 
L 2419 1625 
L 2419 4116 
z
M 2253 4666 
L 3047 4666 
L 3047 1625 
L 3713 1625 
L 3713 1100 
L 3047 1100 
L 3047 0 
L 2419 0 
L 2419 1100 
L 313 1100 
L 313 1709 
L 2253 4666 
z
" transform="scale(0.015625)"/>
       </defs>
       <use xlink:href="#DejaVuSans-34"/>
       <use xlink:href="#DejaVuSans-30" x="63.623047"/>
       <use xlink:href="#DejaVuSans-30" x="127.246094"/>
      </g>
     </g>
    </g>
    <g id="ytick_6">
     <g id="line2d_27">
      <path d="M 135 94.61785 
L 972 94.61785 
" clip-path="url(#p5c7043121c)" style="fill: none; stroke: #b0b0b0; stroke-width: 0.8; stroke-linecap: square"/>
     </g>
     <g id="line2d_28">
      <g>
       <use xlink:href="#mec65ba22ea" x="135" y="94.61785" style="stroke: #000000; stroke-width: 0.8"/>
      </g>
     </g>
     <g id="text_15">
      <!-- 500 -->
      <g transform="translate(108.9125 98.417069) scale(0.1 -0.1)">
       <use xlink:href="#DejaVuSans-35"/>
       <use xlink:href="#DejaVuSans-30" x="63.623047"/>
       <use xlink:href="#DejaVuSans-30" x="127.246094"/>
      </g>
     </g>
    </g>
    <g id="text_16">
     <!-- Среднее время (мс) -->
     <g transform="translate(102.832812 415.799219) rotate(-90) scale(0.1 -0.1)">
      <defs>
       <path id="DejaVuSans-421" d="M 4122 4306 
L 4122 3641 
Q 3803 3938 3442 4084 
Q 3081 4231 2675 4231 
Q 1875 4231 1450 3742 
Q 1025 3253 1025 2328 
Q 1025 1406 1450 917 
Q 1875 428 2675 428 
Q 3081 428 3442 575 
Q 3803 722 4122 1019 
L 4122 359 
Q 3791 134 3420 21 
Q 3050 -91 2638 -91 
Q 1578 -91 968 557 
Q 359 1206 359 2328 
Q 359 3453 968 4101 
Q 1578 4750 2638 4750 
Q 3056 4750 3426 4639 
Q 3797 4528 4122 4306 
z
" transform="scale(0.015625)"/>
       <path id="DejaVuSans-432" d="M 1156 1613 
L 1156 459 
L 1975 459 
Q 2369 459 2575 607 
Q 2781 756 2781 1038 
Q 2781 1319 2575 1466 
Q 2369 1613 1975 1613 
L 1156 1613 
z
M 1156 3041 
L 1156 2072 
L 1913 2072 
Q 2238 2072 2444 2201 
Q 2650 2331 2650 2563 
Q 2650 2794 2444 2917 
Q 2238 3041 1913 3041 
L 1156 3041 
z
M 581 3500 
L 1950 3500 
Q 2566 3500 2897 3275 
Q 3228 3050 3228 2634 
Q 3228 2313 3059 2123 
Q 2891 1934 2559 1888 
Q 2956 1813 3175 1575 
Q 3394 1338 3394 981 
Q 3394 513 3033 256 
Q 2672 0 2003 0 
L 581 0 
L 581 3500 
z
" transform="scale(0.015625)"/>
       <path id="DejaVuSans-44f" d="M 1181 2491 
Q 1181 2231 1381 2084 
Q 1581 1938 1953 1938 
L 2728 1938 
L 2728 3041 
L 1953 3041 
Q 1581 3041 1381 2897 
Q 1181 2753 1181 2491 
z
M 363 0 
L 1431 1534 
Q 1069 1616 828 1830 
Q 588 2044 588 2491 
Q 588 2997 923 3248 
Q 1259 3500 1938 3500 
L 3306 3500 
L 3306 0 
L 2728 0 
L 2728 1478 
L 2013 1478 
L 981 0 
L 363 0 
z
" transform="scale(0.015625)"/>
       <path id="DejaVuSans-28" d="M 1984 4856 
Q 1566 4138 1362 3434 
Q 1159 2731 1159 2009 
Q 1159 1288 1364 580 
Q 1569 -128 1984 -844 
L 1484 -844 
Q 1016 -109 783 600 
Q 550 1309 550 2009 
Q 550 2706 781 3412 
Q 1013 4119 1484 4856 
L 1984 4856 
z
" transform="scale(0.015625)"/>
       <path id="DejaVuSans-441" d="M 3122 3366 
L 3122 2828 
Q 2878 2963 2633 3030 
Q 2388 3097 2138 3097 
Q 1578 3097 1268 2742 
Q 959 2388 959 1747 
Q 959 1106 1268 751 
Q 1578 397 2138 397 
Q 2388 397 2633 464 
Q 2878 531 3122 666 
L 3122 134 
Q 2881 22 2623 -34 
Q 2366 -91 2075 -91 
Q 1284 -91 818 406 
Q 353 903 353 1747 
Q 353 2603 823 3093 
Q 1294 3584 2113 3584 
Q 2378 3584 2631 3529 
Q 2884 3475 3122 3366 
z
" transform="scale(0.015625)"/>
       <path id="DejaVuSans-29" d="M 513 4856 
L 1013 4856 
Q 1481 4119 1714 3412 
Q 1947 2706 1947 2009 
Q 1947 1309 1714 600 
Q 1481 -109 1013 -844 
L 513 -844 
Q 928 -128 1133 580 
Q 1338 1288 1338 2009 
Q 1338 2731 1133 3434 
Q 928 4138 513 4856 
z
" transform="scale(0.015625)"/>
      </defs>
      <use xlink:href="#DejaVuSans-421"/>
      <use xlink:href="#DejaVuSans-440" x="69.824219"/>
      <use xlink:href="#DejaVuSans-435" x="133.300781"/>
      <use xlink:href="#DejaVuSans-434" x="194.824219"/>
      <use xlink:href="#DejaVuSans-43d" x="263.964844"/>
      <use xlink:href="#DejaVuSans-435" x="329.345703"/>
      <use xlink:href="#DejaVuSans-435" x="390.869141"/>
      <use xlink:href="#DejaVuSans-20" x="452.392578"/>
      <use xlink:href="#DejaVuSans-432" x="484.179688"/>
      <use xlink:href="#DejaVuSans-440" x="543.115234"/>
      <use xlink:href="#DejaVuSans-435" x="606.591797"/>
      <use xlink:href="#DejaVuSans-43c" x="668.115234"/>
      <use xlink:href="#DejaVuSans-44f" x="743.554688"/>
      <use xlink:href="#DejaVuSans-20" x="803.710938"/>
      <use xlink:href="#DejaVuSans-28" x="835.498047"/>
      <use xlink:href="#DejaVuSans-43c" x="874.511719"/>
      <use xlink:href="#DejaVuSans-441" x="949.951172"/>
      <use xlink:href="#DejaVuSans-29" x="1004.931641"/>
     </g>
    </g>
   </g>
   <g id="line2d_29">
    <path d="M 173.045455 615.58351 
L 183.613636 615.287072 
L 194.181818 614.837576 
L 204.75 610.960224 
L 215.318182 613.30179 
L 225.886364 612.286362 
L 236.454545 611.067758 
L 247.022727 609.68758 
L 257.590909 608.089742 
L 268.159091 606.322784 
L 278.727273 604.245439 
L 289.295455 602.355876 
L 299.863636 600.155376 
L 310.431818 597.697889 
L 321 595.007085 
L 331.568182 592.155849 
L 342.136364 589.15925 
L 352.704545 585.987343 
L 363.272727 582.594486 
L 373.840909 578.560742 
L 384.409091 574.96636 
L 394.977273 569.318625 
L 405.545455 566.76024 
L 416.113636 561.870952 
L 426.681818 557.629852 
L 437.25 553.430182 
L 447.818182 545.490809 
L 458.386364 543.090964 
L 468.954545 535.880331 
L 479.522727 528.627998 
L 490.090909 525.623131 
L 500.659091 519.679078 
L 511.227273 513.085454 
L 521.795455 506.895966 
L 532.363636 500.220087 
L 542.931818 493.848317 
L 553.5 486.958101 
L 564.068182 480.020233 
L 574.636364 472.237724 
L 585.204545 464.432947 
L 595.772727 457.304052 
L 606.340909 450.486923 
L 616.909091 440.410231 
L 627.477273 433.192972 
L 638.045455 424.910594 
L 648.613636 414.620645 
L 659.181818 405.106836 
L 669.75 399.693791 
L 680.318182 390.525604 
L 690.886364 381.604472 
L 701.454545 371.841371 
L 712.022727 361.838748 
L 722.590909 353.640396 
L 733.159091 342.636895 
L 743.727273 332.389249 
L 754.295455 321.452493 
L 764.863636 311.00941 
L 775.431818 300.666178 
L 786 289.153497 
L 796.568182 279.257413 
L 807.136364 267.255897 
L 817.704545 256.307476 
L 828.272727 245.865153 
L 838.840909 231.780026 
L 849.409091 220.60521 
L 859.977273 209.303115 
L 870.545455 193.833213 
L 881.113636 179.892891 
L 891.681818 169.958834 
L 902.25 156.830345 
L 912.818182 144.45133 
L 923.386364 130.281441 
L 933.954545 116.94432 
" clip-path="url(#p5c7043121c)" style="fill: none; stroke: #1f77b4; stroke-linecap: square"/>
    <defs>
     <path id="m0136b768cf" d="M 0 0 
L -3 -0 
M 0 0 
L 1.5 2.4 
M 0 0 
L 1.5 -2.4 
" style="stroke: #1f77b4"/>
    </defs>
    <g clip-path="url(#p5c7043121c)">
     <use xlink:href="#m0136b768cf" x="173.045455" y="615.58351" style="fill: #1f77b4; stroke: #1f77b4"/>
     <use xlink:href="#m0136b768cf" x="183.613636" y="615.287072" style="fill: #1f77b4; stroke: #1f77b4"/>
     <use xlink:href="#m0136b768cf" x="194.181818" y="614.837576" style="fill: #1f77b4; stroke: #1f77b4"/>
     <use xlink:href="#m0136b768cf" x="204.75" y="610.960224" style="fill: #1f77b4; stroke: #1f77b4"/>
     <use xlink:href="#m0136b768cf" x="215.318182" y="613.30179" style="fill: #1f77b4; stroke: #1f77b4"/>
     <use xlink:href="#m0136b768cf" x="225.886364" y="612.286362" style="fill: #1f77b4; stroke: #1f77b4"/>
     <use xlink:href="#m0136b768cf" x="236.454545" y="611.067758" style="fill: #1f77b4; stroke: #1f77b4"/>
     <use xlink:href="#m0136b768cf" x="247.022727" y="609.68758" style="fill: #1f77b4; stroke: #1f77b4"/>
     <use xlink:href="#m0136b768cf" x="257.590909" y="608.089742" style="fill: #1f77b4; stroke: #1f77b4"/>
     <use xlink:href="#m0136b768cf" x="268.159091" y="606.322784" style="fill: #1f77b4; stroke: #1f77b4"/>
     <use xlink:href="#m0136b768cf" x="278.727273" y="604.245439" style="fill: #1f77b4; stroke: #1f77b4"/>
     <use xlink:href="#m0136b768cf" x="289.295455" y="602.355876" style="fill: #1f77b4; stroke: #1f77b4"/>
     <use xlink:href="#m0136b768cf" x="299.863636" y="600.155376" style="fill: #1f77b4; stroke: #1f77b4"/>
     <use xlink:href="#m0136b768cf" x="310.431818" y="597.697889" style="fill: #1f77b4; stroke: #1f77b4"/>
     <use xlink:href="#m0136b768cf" x="321" y="595.007085" style="fill: #1f77b4; stroke: #1f77b4"/>
     <use xlink:href="#m0136b768cf" x="331.568182" y="592.155849" style="fill: #1f77b4; stroke: #1f77b4"/>
     <use xlink:href="#m0136b768cf" x="342.136364" y="589.15925" style="fill: #1f77b4; stroke: #1f77b4"/>
     <use xlink:href="#m0136b768cf" x="352.704545" y="585.987343" style="fill: #1f77b4; stroke: #1f77b4"/>
     <use xlink:href="#m0136b768cf" x="363.272727" y="582.594486" style="fill: #1f77b4; stroke: #1f77b4"/>
     <use xlink:href="#m0136b768cf" x="373.840909" y="578.560742" style="fill: #1f77b4; stroke: #1f77b4"/>
     <use xlink:href="#m0136b768cf" x="384.409091" y="574.96636" style="fill: #1f77b4; stroke: #1f77b4"/>
     <use xlink:href="#m0136b768cf" x="394.977273" y="569.318625" style="fill: #1f77b4; stroke: #1f77b4"/>
     <use xlink:href="#m0136b768cf" x="405.545455" y="566.76024" style="fill: #1f77b4; stroke: #1f77b4"/>
     <use xlink:href="#m0136b768cf" x="416.113636" y="561.870952" style="fill: #1f77b4; stroke: #1f77b4"/>
     <use xlink:href="#m0136b768cf" x="426.681818" y="557.629852" style="fill: #1f77b4; stroke: #1f77b4"/>
     <use xlink:href="#m0136b768cf" x="437.25" y="553.430182" style="fill: #1f77b4; stroke: #1f77b4"/>
     <use xlink:href="#m0136b768cf" x="447.818182" y="545.490809" style="fill: #1f77b4; stroke: #1f77b4"/>
     <use xlink:href="#m0136b768cf" x="458.386364" y="543.090964" style="fill: #1f77b4; stroke: #1f77b4"/>
     <use xlink:href="#m0136b768cf" x="468.954545" y="535.880331" style="fill: #1f77b4; stroke: #1f77b4"/>
     <use xlink:href="#m0136b768cf" x="479.522727" y="528.627998" style="fill: #1f77b4; stroke: #1f77b4"/>
     <use xlink:href="#m0136b768cf" x="490.090909" y="525.623131" style="fill: #1f77b4; stroke: #1f77b4"/>
     <use xlink:href="#m0136b768cf" x="500.659091" y="519.679078" style="fill: #1f77b4; stroke: #1f77b4"/>
     <use xlink:href="#m0136b768cf" x="511.227273" y="513.085454" style="fill: #1f77b4; stroke: #1f77b4"/>
     <use xlink:href="#m0136b768cf" x="521.795455" y="506.895966" style="fill: #1f77b4; stroke: #1f77b4"/>
     <use xlink:href="#m0136b768cf" x="532.363636" y="500.220087" style="fill: #1f77b4; stroke: #1f77b4"/>
     <use xlink:href="#m0136b768cf" x="542.931818" y="493.848317" style="fill: #1f77b4; stroke: #1f77b4"/>
     <use xlink:href="#m0136b768cf" x="553.5" y="486.958101" style="fill: #1f77b4; stroke: #1f77b4"/>
     <use xlink:href="#m0136b768cf" x="564.068182" y="480.020233" style="fill: #1f77b4; stroke: #1f77b4"/>
     <use xlink:href="#m0136b768cf" x="574.636364" y="472.237724" style="fill: #1f77b4; stroke: #1f77b4"/>
     <use xlink:href="#m0136b768cf" x="585.204545" y="464.432947" style="fill: #1f77b4; stroke: #1f77b4"/>
     <use xlink:href="#m0136b768cf" x="595.772727" y="457.304052" style="fill: #1f77b4; stroke: #1f77b4"/>
     <use xlink:href="#m0136b768cf" x="606.340909" y="450.486923" style="fill: #1f77b4; stroke: #1f77b4"/>
     <use xlink:href="#m0136b768cf" x="616.909091" y="440.410231" style="fill: #1f77b4; stroke: #1f77b4"/>
     <use xlink:href="#m0136b768cf" x="627.477273" y="433.192972" style="fill: #1f77b4; stroke: #1f77b4"/>
     <use xlink:href="#m0136b768cf" x="638.045455" y="424.910594" style="fill: #1f77b4; stroke: #1f77b4"/>
     <use xlink:href="#m0136b768cf" x="648.613636" y="414.620645" style="fill: #1f77b4; stroke: #1f77b4"/>
     <use xlink:href="#m0136b768cf" x="659.181818" y="405.106836" style="fill: #1f77b4; stroke: #1f77b4"/>
     <use xlink:href="#m0136b768cf" x="669.75" y="399.693791" style="fill: #1f77b4; stroke: #1f77b4"/>
     <use xlink:href="#m0136b768cf" x="680.318182" y="390.525604" style="fill: #1f77b4; stroke: #1f77b4"/>
     <use xlink:href="#m0136b768cf" x="690.886364" y="381.604472" style="fill: #1f77b4; stroke: #1f77b4"/>
     <use xlink:href="#m0136b768cf" x="701.454545" y="371.841371" style="fill: #1f77b4; stroke: #1f77b4"/>
     <use xlink:href="#m0136b768cf" x="712.022727" y="361.838748" style="fill: #1f77b4; stroke: #1f77b4"/>
     <use xlink:href="#m0136b768cf" x="722.590909" y="353.640396" style="fill: #1f77b4; stroke: #1f77b4"/>
     <use xlink:href="#m0136b768cf" x="733.159091" y="342.636895" style="fill: #1f77b4; stroke: #1f77b4"/>
     <use xlink:href="#m0136b768cf" x="743.727273" y="332.389249" style="fill: #1f77b4; stroke: #1f77b4"/>
     <use xlink:href="#m0136b768cf" x="754.295455" y="321.452493" style="fill: #1f77b4; stroke: #1f77b4"/>
     <use xlink:href="#m0136b768cf" x="764.863636" y="311.00941" style="fill: #1f77b4; stroke: #1f77b4"/>
     <use xlink:href="#m0136b768cf" x="775.431818" y="300.666178" style="fill: #1f77b4; stroke: #1f77b4"/>
     <use xlink:href="#m0136b768cf" x="786" y="289.153497" style="fill: #1f77b4; stroke: #1f77b4"/>
     <use xlink:href="#m0136b768cf" x="796.568182" y="279.257413" style="fill: #1f77b4; stroke: #1f77b4"/>
     <use xlink:href="#m0136b768cf" x="807.136364" y="267.255897" style="fill: #1f77b4; stroke: #1f77b4"/>
     <use xlink:href="#m0136b768cf" x="817.704545" y="256.307476" style="fill: #1f77b4; stroke: #1f77b4"/>
     <use xlink:href="#m0136b768cf" x="828.272727" y="245.865153" style="fill: #1f77b4; stroke: #1f77b4"/>
     <use xlink:href="#m0136b768cf" x="838.840909" y="231.780026" style="fill: #1f77b4; stroke: #1f77b4"/>
     <use xlink:href="#m0136b768cf" x="849.409091" y="220.60521" style="fill: #1f77b4; stroke: #1f77b4"/>
     <use xlink:href="#m0136b768cf" x="859.977273" y="209.303115" style="fill: #1f77b4; stroke: #1f77b4"/>
     <use xlink:href="#m0136b768cf" x="870.545455" y="193.833213" style="fill: #1f77b4; stroke: #1f77b4"/>
     <use xlink:href="#m0136b768cf" x="881.113636" y="179.892891" style="fill: #1f77b4; stroke: #1f77b4"/>
     <use xlink:href="#m0136b768cf" x="891.681818" y="169.958834" style="fill: #1f77b4; stroke: #1f77b4"/>
     <use xlink:href="#m0136b768cf" x="902.25" y="156.830345" style="fill: #1f77b4; stroke: #1f77b4"/>
     <use xlink:href="#m0136b768cf" x="912.818182" y="144.45133" style="fill: #1f77b4; stroke: #1f77b4"/>
     <use xlink:href="#m0136b768cf" x="923.386364" y="130.281441" style="fill: #1f77b4; stroke: #1f77b4"/>
     <use xlink:href="#m0136b768cf" x="933.954545" y="116.94432" style="fill: #1f77b4; stroke: #1f77b4"/>
    </g>
   </g>
   <g id="line2d_30">
    <path d="M 173.045455 615.552164 
L 183.613636 615.211915 
L 194.181818 614.711702 
L 204.75 612.894383 
L 215.318182 613.17126 
L 225.886364 612.043024 
L 236.454545 610.744314 
L 247.022727 609.448385 
L 257.590909 607.766349 
L 268.159091 606.14836 
L 278.727273 604.086999 
L 289.295455 602.057513 
L 299.863636 599.641817 
L 310.431818 597.138472 
L 321 594.579766 
L 331.568182 591.53342 
L 342.136364 588.568982 
L 352.704545 585.137294 
L 363.272727 581.572485 
L 373.840909 578.243826 
L 384.409091 574.481323 
L 394.977273 568.297429 
L 405.545455 563.610121 
L 416.113636 560.743111 
L 426.681818 555.795253 
L 437.25 549.341415 
L 447.818182 546.365987 
L 458.386364 541.657693 
L 468.954545 533.93677 
L 479.522727 528.642923 
L 490.090909 523.72022 
L 500.659091 517.264321 
L 511.227273 511.168557 
L 521.795455 504.723729 
L 532.363636 498.26395 
L 542.931818 491.611917 
L 553.5 484.810613 
L 564.068182 478.068557 
L 574.636364 469.956943 
L 585.204545 462.217758 
L 595.772727 454.419002 
L 606.340909 446.851586 
L 616.909091 438.814894 
L 627.477273 429.685435 
L 638.045455 422.036421 
L 648.613636 409.928233 
L 659.181818 405.974662 
L 669.75 396.746255 
L 680.318182 387.636632 
L 690.886364 378.338172 
L 701.454545 368.760125 
L 712.022727 359.30678 
L 722.590909 348.697672 
L 733.159091 339.653559 
L 743.727273 328.421775 
L 754.295455 318.653361 
L 764.863636 307.478641 
L 775.431818 297.00113 
L 786 286.435442 
L 796.568182 273.257887 
L 807.136364 263.48492 
L 817.704545 250.344947 
L 828.272727 239.856618 
L 838.840909 227.23966 
L 849.409091 215.532309 
L 859.977273 202.714517 
L 870.545455 187.750571 
L 881.113636 177.583455 
L 891.681818 166.225767 
L 902.25 151.98875 
L 912.818182 135.665604 
L 923.386364 126.743033 
L 933.954545 111.6 
" clip-path="url(#p5c7043121c)" style="fill: none; stroke: #ff7f0e; stroke-linecap: square"/>
    <defs>
     <path id="mf12bf3ccc8" d="M 0 0 
L -3 -0 
M 0 0 
L 1.5 2.4 
M 0 0 
L 1.5 -2.4 
" style="stroke: #ff7f0e"/>
    </defs>
    <g clip-path="url(#p5c7043121c)">
     <use xlink:href="#mf12bf3ccc8" x="173.045455" y="615.552164" style="fill: #ff7f0e; stroke: #ff7f0e"/>
     <use xlink:href="#mf12bf3ccc8" x="183.613636" y="615.211915" style="fill: #ff7f0e; stroke: #ff7f0e"/>
     <use xlink:href="#mf12bf3ccc8" x="194.181818" y="614.711702" style="fill: #ff7f0e; stroke: #ff7f0e"/>
     <use xlink:href="#mf12bf3ccc8" x="204.75" y="612.894383" style="fill: #ff7f0e; stroke: #ff7f0e"/>
     <use xlink:href="#mf12bf3ccc8" x="215.318182" y="613.17126" style="fill: #ff7f0e; stroke: #ff7f0e"/>
     <use xlink:href="#mf12bf3ccc8" x="225.886364" y="612.043024" style="fill: #ff7f0e; stroke: #ff7f0e"/>
     <use xlink:href="#mf12bf3ccc8" x="236.454545" y="610.744314" style="fill: #ff7f0e; stroke: #ff7f0e"/>
     <use xlink:href="#mf12bf3ccc8" x="247.022727" y="609.448385" style="fill: #ff7f0e; stroke: #ff7f0e"/>
     <use xlink:href="#mf12bf3ccc8" x="257.590909" y="607.766349" style="fill: #ff7f0e; stroke: #ff7f0e"/>
     <use xlink:href="#mf12bf3ccc8" x="268.159091" y="606.14836" style="fill: #ff7f0e; stroke: #ff7f0e"/>
     <use xlink:href="#mf12bf3ccc8" x="278.727273" y="604.086999" style="fill: #ff7f0e; stroke: #ff7f0e"/>
     <use xlink:href="#mf12bf3ccc8" x="289.295455" y="602.057513" style="fill: #ff7f0e; stroke: #ff7f0e"/>
     <use xlink:href="#mf12bf3ccc8" x="299.863636" y="599.641817" style="fill: #ff7f0e; stroke: #ff7f0e"/>
     <use xlink:href="#mf12bf3ccc8" x="310.431818" y="597.138472" style="fill: #ff7f0e; stroke: #ff7f0e"/>
     <use xlink:href="#mf12bf3ccc8" x="321" y="594.579766" style="fill: #ff7f0e; stroke: #ff7f0e"/>
     <use xlink:href="#mf12bf3ccc8" x="331.568182" y="591.53342" style="fill: #ff7f0e; stroke: #ff7f0e"/>
     <use xlink:href="#mf12bf3ccc8" x="342.136364" y="588.568982" style="fill: #ff7f0e; stroke: #ff7f0e"/>
     <use xlink:href="#mf12bf3ccc8" x="352.704545" y="585.137294" style="fill: #ff7f0e; stroke: #ff7f0e"/>
     <use xlink:href="#mf12bf3ccc8" x="363.272727" y="581.572485" style="fill: #ff7f0e; stroke: #ff7f0e"/>
     <use xlink:href="#mf12bf3ccc8" x="373.840909" y="578.243826" style="fill: #ff7f0e; stroke: #ff7f0e"/>
     <use xlink:href="#mf12bf3ccc8" x="384.409091" y="574.481323" style="fill: #ff7f0e; stroke: #ff7f0e"/>
     <use xlink:href="#mf12bf3ccc8" x="394.977273" y="568.297429" style="fill: #ff7f0e; stroke: #ff7f0e"/>
     <use xlink:href="#mf12bf3ccc8" x="405.545455" y="563.610121" style="fill: #ff7f0e; stroke: #ff7f0e"/>
     <use xlink:href="#mf12bf3ccc8" x="416.113636" y="560.743111" style="fill: #ff7f0e; stroke: #ff7f0e"/>
     <use xlink:href="#mf12bf3ccc8" x="426.681818" y="555.795253" style="fill: #ff7f0e; stroke: #ff7f0e"/>
     <use xlink:href="#mf12bf3ccc8" x="437.25" y="549.341415" style="fill: #ff7f0e; stroke: #ff7f0e"/>
     <use xlink:href="#mf12bf3ccc8" x="447.818182" y="546.365987" style="fill: #ff7f0e; stroke: #ff7f0e"/>
     <use xlink:href="#mf12bf3ccc8" x="458.386364" y="541.657693" style="fill: #ff7f0e; stroke: #ff7f0e"/>
     <use xlink:href="#mf12bf3ccc8" x="468.954545" y="533.93677" style="fill: #ff7f0e; stroke: #ff7f0e"/>
     <use xlink:href="#mf12bf3ccc8" x="479.522727" y="528.642923" style="fill: #ff7f0e; stroke: #ff7f0e"/>
     <use xlink:href="#mf12bf3ccc8" x="490.090909" y="523.72022" style="fill: #ff7f0e; stroke: #ff7f0e"/>
     <use xlink:href="#mf12bf3ccc8" x="500.659091" y="517.264321" style="fill: #ff7f0e; stroke: #ff7f0e"/>
     <use xlink:href="#mf12bf3ccc8" x="511.227273" y="511.168557" style="fill: #ff7f0e; stroke: #ff7f0e"/>
     <use xlink:href="#mf12bf3ccc8" x="521.795455" y="504.723729" style="fill: #ff7f0e; stroke: #ff7f0e"/>
     <use xlink:href="#mf12bf3ccc8" x="532.363636" y="498.26395" style="fill: #ff7f0e; stroke: #ff7f0e"/>
     <use xlink:href="#mf12bf3ccc8" x="542.931818" y="491.611917" style="fill: #ff7f0e; stroke: #ff7f0e"/>
     <use xlink:href="#mf12bf3ccc8" x="553.5" y="484.810613" style="fill: #ff7f0e; stroke: #ff7f0e"/>
     <use xlink:href="#mf12bf3ccc8" x="564.068182" y="478.068557" style="fill: #ff7f0e; stroke: #ff7f0e"/>
     <use xlink:href="#mf12bf3ccc8" x="574.636364" y="469.956943" style="fill: #ff7f0e; stroke: #ff7f0e"/>
     <use xlink:href="#mf12bf3ccc8" x="585.204545" y="462.217758" style="fill: #ff7f0e; stroke: #ff7f0e"/>
     <use xlink:href="#mf12bf3ccc8" x="595.772727" y="454.419002" style="fill: #ff7f0e; stroke: #ff7f0e"/>
     <use xlink:href="#mf12bf3ccc8" x="606.340909" y="446.851586" style="fill: #ff7f0e; stroke: #ff7f0e"/>
     <use xlink:href="#mf12bf3ccc8" x="616.909091" y="438.814894" style="fill: #ff7f0e; stroke: #ff7f0e"/>
     <use xlink:href="#mf12bf3ccc8" x="627.477273" y="429.685435" style="fill: #ff7f0e; stroke: #ff7f0e"/>
     <use xlink:href="#mf12bf3ccc8" x="638.045455" y="422.036421" style="fill: #ff7f0e; stroke: #ff7f0e"/>
     <use xlink:href="#mf12bf3ccc8" x="648.613636" y="409.928233" style="fill: #ff7f0e; stroke: #ff7f0e"/>
     <use xlink:href="#mf12bf3ccc8" x="659.181818" y="405.974662" style="fill: #ff7f0e; stroke: #ff7f0e"/>
     <use xlink:href="#mf12bf3ccc8" x="669.75" y="396.746255" style="fill: #ff7f0e; stroke: #ff7f0e"/>
     <use xlink:href="#mf12bf3ccc8" x="680.318182" y="387.636632" style="fill: #ff7f0e; stroke: #ff7f0e"/>
     <use xlink:href="#mf12bf3ccc8" x="690.886364" y="378.338172" style="fill: #ff7f0e; stroke: #ff7f0e"/>
     <use xlink:href="#mf12bf3ccc8" x="701.454545" y="368.760125" style="fill: #ff7f0e; stroke: #ff7f0e"/>
     <use xlink:href="#mf12bf3ccc8" x="712.022727" y="359.30678" style="fill: #ff7f0e; stroke: #ff7f0e"/>
     <use xlink:href="#mf12bf3ccc8" x="722.590909" y="348.697672" style="fill: #ff7f0e; stroke: #ff7f0e"/>
     <use xlink:href="#mf12bf3ccc8" x="733.159091" y="339.653559" style="fill: #ff7f0e; stroke: #ff7f0e"/>
     <use xlink:href="#mf12bf3ccc8" x="743.727273" y="328.421775" style="fill: #ff7f0e; stroke: #ff7f0e"/>
     <use xlink:href="#mf12bf3ccc8" x="754.295455" y="318.653361" style="fill: #ff7f0e; stroke: #ff7f0e"/>
     <use xlink:href="#mf12bf3ccc8" x="764.863636" y="307.478641" style="fill: #ff7f0e; stroke: #ff7f0e"/>
     <use xlink:href="#mf12bf3ccc8" x="775.431818" y="297.00113" style="fill: #ff7f0e; stroke: #ff7f0e"/>
     <use xlink:href="#mf12bf3ccc8" x="786" y="286.435442" style="fill: #ff7f0e; stroke: #ff7f0e"/>
     <use xlink:href="#mf12bf3ccc8" x="796.568182" y="273.257887" style="fill: #ff7f0e; stroke: #ff7f0e"/>
     <use xlink:href="#mf12bf3ccc8" x="807.136364" y="263.48492" style="fill: #ff7f0e; stroke: #ff7f0e"/>
     <use xlink:href="#mf12bf3ccc8" x="817.704545" y="250.344947" style="fill: #ff7f0e; stroke: #ff7f0e"/>
     <use xlink:href="#mf12bf3ccc8" x="828.272727" y="239.856618" style="fill: #ff7f0e; stroke: #ff7f0e"/>
     <use xlink:href="#mf12bf3ccc8" x="838.840909" y="227.23966" style="fill: #ff7f0e; stroke: #ff7f0e"/>
     <use xlink:href="#mf12bf3ccc8" x="849.409091" y="215.532309" style="fill: #ff7f0e; stroke: #ff7f0e"/>
     <use xlink:href="#mf12bf3ccc8" x="859.977273" y="202.714517" style="fill: #ff7f0e; stroke: #ff7f0e"/>
     <use xlink:href="#mf12bf3ccc8" x="870.545455" y="187.750571" style="fill: #ff7f0e; stroke: #ff7f0e"/>
     <use xlink:href="#mf12bf3ccc8" x="881.113636" y="177.583455" style="fill: #ff7f0e; stroke: #ff7f0e"/>
     <use xlink:href="#mf12bf3ccc8" x="891.681818" y="166.225767" style="fill: #ff7f0e; stroke: #ff7f0e"/>
     <use xlink:href="#mf12bf3ccc8" x="902.25" y="151.98875" style="fill: #ff7f0e; stroke: #ff7f0e"/>
     <use xlink:href="#mf12bf3ccc8" x="912.818182" y="135.665604" style="fill: #ff7f0e; stroke: #ff7f0e"/>
     <use xlink:href="#mf12bf3ccc8" x="923.386364" y="126.743033" style="fill: #ff7f0e; stroke: #ff7f0e"/>
     <use xlink:href="#mf12bf3ccc8" x="933.954545" y="111.6" style="fill: #ff7f0e; stroke: #ff7f0e"/>
    </g>
   </g>
   <g id="line2d_31">
    <path d="M 173.045455 615.6 
L 183.613636 614.75228 
L 194.181818 614.970715 
L 204.75 614.438765 
L 215.318182 613.660884 
L 225.886364 612.910321 
L 236.454545 611.956813 
L 247.022727 610.811181 
L 257.590909 609.542634 
L 268.159091 608.200632 
L 278.727273 606.589871 
L 289.295455 605.007826 
L 299.863636 603.201475 
L 310.431818 601.196703 
L 321 599.057968 
L 331.568182 596.840701 
L 342.136364 594.229975 
L 352.704545 591.710699 
L 363.272727 589.116285 
L 373.840909 586.102727 
L 384.409091 583.257474 
L 394.977273 579.063857 
L 405.545455 576.013542 
L 416.113636 573.375926 
L 426.681818 569.737218 
L 437.25 564.74645 
L 447.818182 561.364306 
L 458.386364 556.042112 
L 468.954545 550.987698 
L 479.522727 547.383152 
L 490.090909 543.628546 
L 500.659091 537.959667 
L 511.227273 533.32291 
L 521.795455 528.361968 
L 532.363636 523.525302 
L 542.931818 518.103677 
L 553.5 512.778457 
L 564.068182 506.700857 
L 574.636364 500.581479 
L 585.204545 494.808189 
L 595.772727 489.088936 
L 606.340909 482.643474 
L 616.909091 475.704258 
L 627.477273 469.616517 
L 638.045455 463.060818 
L 648.613636 452.797319 
L 659.181818 450.471181 
L 669.75 443.023902 
L 680.318182 436.054979 
L 690.886364 428.367969 
L 701.454545 420.350039 
L 712.022727 413.648739 
L 722.590909 405.419463 
L 733.159091 397.604214 
L 743.727273 389.459537 
L 754.295455 380.775422 
L 764.863636 372.44041 
L 775.431818 363.500546 
L 786 355.38164 
L 796.568182 346.464681 
L 807.136364 336.459366 
L 817.704545 327.768951 
L 828.272727 318.002042 
L 838.840909 308.969311 
L 849.409091 299.637987 
L 859.977273 288.879444 
L 870.545455 277.800889 
L 881.113636 269.314457 
L 891.681818 259.206205 
L 902.25 249.142649 
L 912.818182 238.313235 
L 923.386364 227.341123 
L 933.954545 216.860124 
" clip-path="url(#p5c7043121c)" style="fill: none; stroke: #2ca02c; stroke-linecap: square"/>
    <defs>
     <path id="m75c1932571" d="M 0 0 
L -3 -0 
M 0 0 
L 1.5 2.4 
M 0 0 
L 1.5 -2.4 
" style="stroke: #2ca02c"/>
    </defs>
    <g clip-path="url(#p5c7043121c)">
     <use xlink:href="#m75c1932571" x="173.045455" y="615.6" style="fill: #2ca02c; stroke: #2ca02c"/>
     <use xlink:href="#m75c1932571" x="183.613636" y="614.75228" style="fill: #2ca02c; stroke: #2ca02c"/>
     <use xlink:href="#m75c1932571" x="194.181818" y="614.970715" style="fill: #2ca02c; stroke: #2ca02c"/>
     <use xlink:href="#m75c1932571" x="204.75" y="614.438765" style="fill: #2ca02c; stroke: #2ca02c"/>
     <use xlink:href="#m75c1932571" x="215.318182" y="613.660884" style="fill: #2ca02c; stroke: #2ca02c"/>
     <use xlink:href="#m75c1932571" x="225.886364" y="612.910321" style="fill: #2ca02c; stroke: #2ca02c"/>
     <use xlink:href="#m75c1932571" x="236.454545" y="611.956813" style="fill: #2ca02c; stroke: #2ca02c"/>
     <use xlink:href="#m75c1932571" x="247.022727" y="610.811181" style="fill: #2ca02c; stroke: #2ca02c"/>
     <use xlink:href="#m75c1932571" x="257.590909" y="609.542634" style="fill: #2ca02c; stroke: #2ca02c"/>
     <use xlink:href="#m75c1932571" x="268.159091" y="608.200632" style="fill: #2ca02c; stroke: #2ca02c"/>
     <use xlink:href="#m75c1932571" x="278.727273" y="606.589871" style="fill: #2ca02c; stroke: #2ca02c"/>
     <use xlink:href="#m75c1932571" x="289.295455" y="605.007826" style="fill: #2ca02c; stroke: #2ca02c"/>
     <use xlink:href="#m75c1932571" x="299.863636" y="603.201475" style="fill: #2ca02c; stroke: #2ca02c"/>
     <use xlink:href="#m75c1932571" x="310.431818" y="601.196703" style="fill: #2ca02c; stroke: #2ca02c"/>
     <use xlink:href="#m75c1932571" x="321" y="599.057968" style="fill: #2ca02c; stroke: #2ca02c"/>
     <use xlink:href="#m75c1932571" x="331.568182" y="596.840701" style="fill: #2ca02c; stroke: #2ca02c"/>
     <use xlink:href="#m75c1932571" x="342.136364" y="594.229975" style="fill: #2ca02c; stroke: #2ca02c"/>
     <use xlink:href="#m75c1932571" x="352.704545" y="591.710699" style="fill: #2ca02c; stroke: #2ca02c"/>
     <use xlink:href="#m75c1932571" x="363.272727" y="589.116285" style="fill: #2ca02c; stroke: #2ca02c"/>
     <use xlink:href="#m75c1932571" x="373.840909" y="586.102727" style="fill: #2ca02c; stroke: #2ca02c"/>
     <use xlink:href="#m75c1932571" x="384.409091" y="583.257474" style="fill: #2ca02c; stroke: #2ca02c"/>
     <use xlink:href="#m75c1932571" x="394.977273" y="579.063857" style="fill: #2ca02c; stroke: #2ca02c"/>
     <use xlink:href="#m75c1932571" x="405.545455" y="576.013542" style="fill: #2ca02c; stroke: #2ca02c"/>
     <use xlink:href="#m75c1932571" x="416.113636" y="573.375926" style="fill: #2ca02c; stroke: #2ca02c"/>
     <use xlink:href="#m75c1932571" x="426.681818" y="569.737218" style="fill: #2ca02c; stroke: #2ca02c"/>
     <use xlink:href="#m75c1932571" x="437.25" y="564.74645" style="fill: #2ca02c; stroke: #2ca02c"/>
     <use xlink:href="#m75c1932571" x="447.818182" y="561.364306" style="fill: #2ca02c; stroke: #2ca02c"/>
     <use xlink:href="#m75c1932571" x="458.386364" y="556.042112" style="fill: #2ca02c; stroke: #2ca02c"/>
     <use xlink:href="#m75c1932571" x="468.954545" y="550.987698" style="fill: #2ca02c; stroke: #2ca02c"/>
     <use xlink:href="#m75c1932571" x="479.522727" y="547.383152" style="fill: #2ca02c; stroke: #2ca02c"/>
     <use xlink:href="#m75c1932571" x="490.090909" y="543.628546" style="fill: #2ca02c; stroke: #2ca02c"/>
     <use xlink:href="#m75c1932571" x="500.659091" y="537.959667" style="fill: #2ca02c; stroke: #2ca02c"/>
     <use xlink:href="#m75c1932571" x="511.227273" y="533.32291" style="fill: #2ca02c; stroke: #2ca02c"/>
     <use xlink:href="#m75c1932571" x="521.795455" y="528.361968" style="fill: #2ca02c; stroke: #2ca02c"/>
     <use xlink:href="#m75c1932571" x="532.363636" y="523.525302" style="fill: #2ca02c; stroke: #2ca02c"/>
     <use xlink:href="#m75c1932571" x="542.931818" y="518.103677" style="fill: #2ca02c; stroke: #2ca02c"/>
     <use xlink:href="#m75c1932571" x="553.5" y="512.778457" style="fill: #2ca02c; stroke: #2ca02c"/>
     <use xlink:href="#m75c1932571" x="564.068182" y="506.700857" style="fill: #2ca02c; stroke: #2ca02c"/>
     <use xlink:href="#m75c1932571" x="574.636364" y="500.581479" style="fill: #2ca02c; stroke: #2ca02c"/>
     <use xlink:href="#m75c1932571" x="585.204545" y="494.808189" style="fill: #2ca02c; stroke: #2ca02c"/>
     <use xlink:href="#m75c1932571" x="595.772727" y="489.088936" style="fill: #2ca02c; stroke: #2ca02c"/>
     <use xlink:href="#m75c1932571" x="606.340909" y="482.643474" style="fill: #2ca02c; stroke: #2ca02c"/>
     <use xlink:href="#m75c1932571" x="616.909091" y="475.704258" style="fill: #2ca02c; stroke: #2ca02c"/>
     <use xlink:href="#m75c1932571" x="627.477273" y="469.616517" style="fill: #2ca02c; stroke: #2ca02c"/>
     <use xlink:href="#m75c1932571" x="638.045455" y="463.060818" style="fill: #2ca02c; stroke: #2ca02c"/>
     <use xlink:href="#m75c1932571" x="648.613636" y="452.797319" style="fill: #2ca02c; stroke: #2ca02c"/>
     <use xlink:href="#m75c1932571" x="659.181818" y="450.471181" style="fill: #2ca02c; stroke: #2ca02c"/>
     <use xlink:href="#m75c1932571" x="669.75" y="443.023902" style="fill: #2ca02c; stroke: #2ca02c"/>
     <use xlink:href="#m75c1932571" x="680.318182" y="436.054979" style="fill: #2ca02c; stroke: #2ca02c"/>
     <use xlink:href="#m75c1932571" x="690.886364" y="428.367969" style="fill: #2ca02c; stroke: #2ca02c"/>
     <use xlink:href="#m75c1932571" x="701.454545" y="420.350039" style="fill: #2ca02c; stroke: #2ca02c"/>
     <use xlink:href="#m75c1932571" x="712.022727" y="413.648739" style="fill: #2ca02c; stroke: #2ca02c"/>
     <use xlink:href="#m75c1932571" x="722.590909" y="405.419463" style="fill: #2ca02c; stroke: #2ca02c"/>
     <use xlink:href="#m75c1932571" x="733.159091" y="397.604214" style="fill: #2ca02c; stroke: #2ca02c"/>
     <use xlink:href="#m75c1932571" x="743.727273" y="389.459537" style="fill: #2ca02c; stroke: #2ca02c"/>
     <use xlink:href="#m75c1932571" x="754.295455" y="380.775422" style="fill: #2ca02c; stroke: #2ca02c"/>
     <use xlink:href="#m75c1932571" x="764.863636" y="372.44041" style="fill: #2ca02c; stroke: #2ca02c"/>
     <use xlink:href="#m75c1932571" x="775.431818" y="363.500546" style="fill: #2ca02c; stroke: #2ca02c"/>
     <use xlink:href="#m75c1932571" x="786" y="355.38164" style="fill: #2ca02c; stroke: #2ca02c"/>
     <use xlink:href="#m75c1932571" x="796.568182" y="346.464681" style="fill: #2ca02c; stroke: #2ca02c"/>
     <use xlink:href="#m75c1932571" x="807.136364" y="336.459366" style="fill: #2ca02c; stroke: #2ca02c"/>
     <use xlink:href="#m75c1932571" x="817.704545" y="327.768951" style="fill: #2ca02c; stroke: #2ca02c"/>
     <use xlink:href="#m75c1932571" x="828.272727" y="318.002042" style="fill: #2ca02c; stroke: #2ca02c"/>
     <use xlink:href="#m75c1932571" x="838.840909" y="308.969311" style="fill: #2ca02c; stroke: #2ca02c"/>
     <use xlink:href="#m75c1932571" x="849.409091" y="299.637987" style="fill: #2ca02c; stroke: #2ca02c"/>
     <use xlink:href="#m75c1932571" x="859.977273" y="288.879444" style="fill: #2ca02c; stroke: #2ca02c"/>
     <use xlink:href="#m75c1932571" x="870.545455" y="277.800889" style="fill: #2ca02c; stroke: #2ca02c"/>
     <use xlink:href="#m75c1932571" x="881.113636" y="269.314457" style="fill: #2ca02c; stroke: #2ca02c"/>
     <use xlink:href="#m75c1932571" x="891.681818" y="259.206205" style="fill: #2ca02c; stroke: #2ca02c"/>
     <use xlink:href="#m75c1932571" x="902.25" y="249.142649" style="fill: #2ca02c; stroke: #2ca02c"/>
     <use xlink:href="#m75c1932571" x="912.818182" y="238.313235" style="fill: #2ca02c; stroke: #2ca02c"/>
     <use xlink:href="#m75c1932571" x="923.386364" y="227.341123" style="fill: #2ca02c; stroke: #2ca02c"/>
     <use xlink:href="#m75c1932571" x="933.954545" y="216.860124" style="fill: #2ca02c; stroke: #2ca02c"/>
    </g>
   </g>
   <g id="patch_3">
    <path d="M 135 640.8 
L 135 86.4 
" style="fill: none; stroke: #000000; stroke-width: 0.8; stroke-linejoin: miter; stroke-linecap: square"/>
   </g>
   <g id="patch_4">
    <path d="M 972 640.8 
L 972 86.4 
" style="fill: none; stroke: #000000; stroke-width: 0.8; stroke-linejoin: miter; stroke-linecap: square"/>
   </g>
   <g id="patch_5">
    <path d="M 135 640.8 
L 972 640.8 
" style="fill: none; stroke: #000000; stroke-width: 0.8; stroke-linejoin: miter; stroke-linecap: square"/>
   </g>
   <g id="patch_6">
    <path d="M 135 86.4 
L 972 86.4 
" style="fill: none; stroke: #000000; stroke-width: 0.8; stroke-linejoin: miter; stroke-linecap: square"/>
   </g>
   <g id="text_17">
    <!-- График зависимости времени от размера данных -->
    <g transform="translate(395.19375 80.4) scale(0.12 -0.12)">
     <defs>
      <path id="DejaVuSans-413" d="M 628 0 
L 628 4666 
L 3531 4666 
L 3531 4134 
L 1259 4134 
L 1259 0 
L 628 0 
z
" transform="scale(0.015625)"/>
      <path id="DejaVuSans-444" d="M 947 1747 
Q 947 1013 1173 702 
Q 1400 391 1784 391 
Q 2091 391 2447 916 
L 2447 2578 
Q 2091 3103 1784 3103 
Q 1400 3103 1173 2792 
Q 947 2481 947 1747 
z
M 2447 -1331 
L 2447 447 
Q 2269 153 2064 31 
Q 1859 -91 1600 -91 
Q 1078 -91 714 392 
Q 350 875 350 1734 
Q 350 2594 714 3089 
Q 1078 3584 1600 3584 
Q 1859 3584 2064 3465 
Q 2269 3347 2447 3053 
L 2447 4666 
L 3025 4666 
L 3025 3053 
Q 3203 3347 3408 3465 
Q 3613 3584 3872 3584 
Q 4394 3584 4758 3089 
Q 5122 2594 5122 1734 
Q 5122 875 4758 392 
Q 4394 -91 3872 -91 
Q 3613 -91 3408 31 
Q 3203 153 3025 447 
L 3025 -1331 
L 2447 -1331 
z
M 4525 1747 
Q 4525 2481 4298 2792 
Q 4072 3103 3688 3103 
Q 3381 3103 3025 2578 
L 3025 916 
Q 3381 391 3688 391 
Q 4072 391 4298 702 
Q 4525 1013 4525 1747 
z
" transform="scale(0.015625)"/>
      <path id="DejaVuSans-438" d="M 3578 3500 
L 3578 0 
L 3006 0 
L 3006 2809 
L 1319 0 
L 581 0 
L 581 3500 
L 1153 3500 
L 1153 697 
L 2838 3500 
L 3578 3500 
z
" transform="scale(0.015625)"/>
      <path id="DejaVuSans-43a" d="M 581 3500 
L 1153 3500 
L 1153 1856 
L 2775 3500 
L 3481 3500 
L 2144 2147 
L 3653 0 
L 3009 0 
L 1769 1766 
L 1153 1141 
L 1153 0 
L 581 0 
L 581 3500 
z
" transform="scale(0.015625)"/>
      <path id="DejaVuSans-43e" d="M 1959 3097 
Q 1497 3097 1228 2736 
Q 959 2375 959 1747 
Q 959 1119 1226 758 
Q 1494 397 1959 397 
Q 2419 397 2687 759 
Q 2956 1122 2956 1747 
Q 2956 2369 2687 2733 
Q 2419 3097 1959 3097 
z
M 1959 3584 
Q 2709 3584 3137 3096 
Q 3566 2609 3566 1747 
Q 3566 888 3137 398 
Q 2709 -91 1959 -91 
Q 1206 -91 779 398 
Q 353 888 353 1747 
Q 353 2609 779 3096 
Q 1206 3584 1959 3584 
z
" transform="scale(0.015625)"/>
      <path id="DejaVuSans-442" d="M 188 3500 
L 3541 3500 
L 3541 3041 
L 2147 3041 
L 2147 0 
L 1581 0 
L 1581 3041 
L 188 3041 
L 188 3500 
z
" transform="scale(0.015625)"/>
     </defs>
     <use xlink:href="#DejaVuSans-413"/>
     <use xlink:href="#DejaVuSans-440" x="60.986328"/>
     <use xlink:href="#DejaVuSans-430" x="124.462891"/>
     <use xlink:href="#DejaVuSans-444" x="185.742188"/>
     <use xlink:href="#DejaVuSans-438" x="271.240234"/>
     <use xlink:href="#DejaVuSans-43a" x="336.230469"/>
     <use xlink:href="#DejaVuSans-20" x="396.630859"/>
     <use xlink:href="#DejaVuSans-437" x="428.417969"/>
     <use xlink:href="#DejaVuSans-430" x="481.591797"/>
     <use xlink:href="#DejaVuSans-432" x="542.871094"/>
     <use xlink:href="#DejaVuSans-438" x="601.806641"/>
     <use xlink:href="#DejaVuSans-441" x="666.796875"/>
     <use xlink:href="#DejaVuSans-438" x="721.777344"/>
     <use xlink:href="#DejaVuSans-43c" x="786.767578"/>
     <use xlink:href="#DejaVuSans-43e" x="862.207031"/>
     <use xlink:href="#DejaVuSans-441" x="923.388672"/>
     <use xlink:href="#DejaVuSans-442" x="978.369141"/>
     <use xlink:href="#DejaVuSans-438" x="1036.621094"/>
     <use xlink:href="#DejaVuSans-20" x="1101.611328"/>
     <use xlink:href="#DejaVuSans-432" x="1133.398438"/>
     <use xlink:href="#DejaVuSans-440" x="1192.333984"/>
     <use xlink:href="#DejaVuSans-435" x="1255.810547"/>
     <use xlink:href="#DejaVuSans-43c" x="1317.333984"/>
     <use xlink:href="#DejaVuSans-435" x="1392.773438"/>
     <use xlink:href="#DejaVuSans-43d" x="1454.296875"/>
     <use xlink:href="#DejaVuSans-438" x="1519.677734"/>
     <use xlink:href="#DejaVuSans-20" x="1584.667969"/>
     <use xlink:href="#DejaVuSans-43e" x="1616.455078"/>
     <use xlink:href="#DejaVuSans-442" x="1677.636719"/>
     <use xlink:href="#DejaVuSans-20" x="1735.888672"/>
     <use xlink:href="#DejaVuSans-440" x="1767.675781"/>
     <use xlink:href="#DejaVuSans-430" x="1831.152344"/>
     <use xlink:href="#DejaVuSans-437" x="1892.431641"/>
     <use xlink:href="#DejaVuSans-43c" x="1945.605469"/>
     <use xlink:href="#DejaVuSans-435" x="2021.044922"/>
     <use xlink:href="#DejaVuSans-440" x="2082.568359"/>
     <use xlink:href="#DejaVuSans-430" x="2146.044922"/>
     <use xlink:href="#DejaVuSans-20" x="2207.324219"/>
     <use xlink:href="#DejaVuSans-434" x="2239.111328"/>
     <use xlink:href="#DejaVuSans-430" x="2308.251953"/>
     <use xlink:href="#DejaVuSans-43d" x="2369.53125"/>
     <use xlink:href="#DejaVuSans-43d" x="2434.912109"/>
     <use xlink:href="#DejaVuSans-44b" x="2500.292969"/>
     <use xlink:href="#DejaVuSans-445" x="2579.248047"/>
    </g>
   </g>
   <g id="legend_1">
    <g id="patch_7">
     <path d="M 142 138.434375 
L 257.7125 138.434375 
Q 259.7125 138.434375 259.7125 136.434375 
L 259.7125 93.4 
Q 259.7125 91.4 257.7125 91.4 
L 142 91.4 
Q 140 91.4 140 93.4 
L 140 136.434375 
Q 140 138.434375 142 138.434375 
z
" style="fill: #ffffff; opacity: 0.8; stroke: #cccccc; stroke-linejoin: miter"/>
    </g>
    <g id="line2d_32">
     <path d="M 144 99.498437 
L 154 99.498437 
L 164 99.498437 
" style="fill: none; stroke: #1f77b4; stroke-linecap: square"/>
     <g>
      <use xlink:href="#m0136b768cf" x="154" y="99.498437" style="fill: #1f77b4; stroke: #1f77b4"/>
     </g>
    </g>
    <g id="text_18">
     <!-- Indexes -->
     <g transform="translate(172 102.998437) scale(0.1 -0.1)">
      <defs>
       <path id="DejaVuSans-49" d="M 628 4666 
L 1259 4666 
L 1259 0 
L 628 0 
L 628 4666 
z
" transform="scale(0.015625)"/>
       <path id="DejaVuSans-6e" d="M 3513 2113 
L 3513 0 
L 2938 0 
L 2938 2094 
Q 2938 2591 2744 2837 
Q 2550 3084 2163 3084 
Q 1697 3084 1428 2787 
Q 1159 2491 1159 1978 
L 1159 0 
L 581 0 
L 581 3500 
L 1159 3500 
L 1159 2956 
Q 1366 3272 1645 3428 
Q 1925 3584 2291 3584 
Q 2894 3584 3203 3211 
Q 3513 2838 3513 2113 
z
" transform="scale(0.015625)"/>
       <path id="DejaVuSans-64" d="M 2906 2969 
L 2906 4863 
L 3481 4863 
L 3481 0 
L 2906 0 
L 2906 525 
Q 2725 213 2448 61 
Q 2172 -91 1784 -91 
Q 1150 -91 751 415 
Q 353 922 353 1747 
Q 353 2572 751 3078 
Q 1150 3584 1784 3584 
Q 2172 3584 2448 3432 
Q 2725 3281 2906 2969 
z
M 947 1747 
Q 947 1113 1208 752 
Q 1469 391 1925 391 
Q 2381 391 2643 752 
Q 2906 1113 2906 1747 
Q 2906 2381 2643 2742 
Q 2381 3103 1925 3103 
Q 1469 3103 1208 2742 
Q 947 2381 947 1747 
z
" transform="scale(0.015625)"/>
       <path id="DejaVuSans-65" d="M 3597 1894 
L 3597 1613 
L 953 1613 
Q 991 1019 1311 708 
Q 1631 397 2203 397 
Q 2534 397 2845 478 
Q 3156 559 3463 722 
L 3463 178 
Q 3153 47 2828 -22 
Q 2503 -91 2169 -91 
Q 1331 -91 842 396 
Q 353 884 353 1716 
Q 353 2575 817 3079 
Q 1281 3584 2069 3584 
Q 2775 3584 3186 3129 
Q 3597 2675 3597 1894 
z
M 3022 2063 
Q 3016 2534 2758 2815 
Q 2500 3097 2075 3097 
Q 1594 3097 1305 2825 
Q 1016 2553 972 2059 
L 3022 2063 
z
" transform="scale(0.015625)"/>
       <path id="DejaVuSans-78" d="M 3513 3500 
L 2247 1797 
L 3578 0 
L 2900 0 
L 1881 1375 
L 863 0 
L 184 0 
L 1544 1831 
L 300 3500 
L 978 3500 
L 1906 2253 
L 2834 3500 
L 3513 3500 
z
" transform="scale(0.015625)"/>
       <path id="DejaVuSans-73" d="M 2834 3397 
L 2834 2853 
Q 2591 2978 2328 3040 
Q 2066 3103 1784 3103 
Q 1356 3103 1142 2972 
Q 928 2841 928 2578 
Q 928 2378 1081 2264 
Q 1234 2150 1697 2047 
L 1894 2003 
Q 2506 1872 2764 1633 
Q 3022 1394 3022 966 
Q 3022 478 2636 193 
Q 2250 -91 1575 -91 
Q 1294 -91 989 -36 
Q 684 19 347 128 
L 347 722 
Q 666 556 975 473 
Q 1284 391 1588 391 
Q 1994 391 2212 530 
Q 2431 669 2431 922 
Q 2431 1156 2273 1281 
Q 2116 1406 1581 1522 
L 1381 1569 
Q 847 1681 609 1914 
Q 372 2147 372 2553 
Q 372 3047 722 3315 
Q 1072 3584 1716 3584 
Q 2034 3584 2315 3537 
Q 2597 3491 2834 3397 
z
" transform="scale(0.015625)"/>
      </defs>
      <use xlink:href="#DejaVuSans-49"/>
      <use xlink:href="#DejaVuSans-6e" x="29.492188"/>
      <use xlink:href="#DejaVuSans-64" x="92.871094"/>
      <use xlink:href="#DejaVuSans-65" x="156.347656"/>
      <use xlink:href="#DejaVuSans-78" x="216.121094"/>
      <use xlink:href="#DejaVuSans-65" x="272.175781"/>
      <use xlink:href="#DejaVuSans-73" x="333.699219"/>
     </g>
    </g>
    <g id="line2d_33">
     <path d="M 144 114.176562 
L 154 114.176562 
L 164 114.176562 
" style="fill: none; stroke: #ff7f0e; stroke-linecap: square"/>
     <g>
      <use xlink:href="#mf12bf3ccc8" x="154" y="114.176562" style="fill: #ff7f0e; stroke: #ff7f0e"/>
     </g>
    </g>
    <g id="text_19">
     <!-- Replace pointers -->
     <g transform="translate(172 117.676562) scale(0.1 -0.1)">
      <defs>
       <path id="DejaVuSans-52" d="M 2841 2188 
Q 3044 2119 3236 1894 
Q 3428 1669 3622 1275 
L 4263 0 
L 3584 0 
L 2988 1197 
Q 2756 1666 2539 1819 
Q 2322 1972 1947 1972 
L 1259 1972 
L 1259 0 
L 628 0 
L 628 4666 
L 2053 4666 
Q 2853 4666 3247 4331 
Q 3641 3997 3641 3322 
Q 3641 2881 3436 2590 
Q 3231 2300 2841 2188 
z
M 1259 4147 
L 1259 2491 
L 2053 2491 
Q 2509 2491 2742 2702 
Q 2975 2913 2975 3322 
Q 2975 3731 2742 3939 
Q 2509 4147 2053 4147 
L 1259 4147 
z
" transform="scale(0.015625)"/>
       <path id="DejaVuSans-70" d="M 1159 525 
L 1159 -1331 
L 581 -1331 
L 581 3500 
L 1159 3500 
L 1159 2969 
Q 1341 3281 1617 3432 
Q 1894 3584 2278 3584 
Q 2916 3584 3314 3078 
Q 3713 2572 3713 1747 
Q 3713 922 3314 415 
Q 2916 -91 2278 -91 
Q 1894 -91 1617 61 
Q 1341 213 1159 525 
z
M 3116 1747 
Q 3116 2381 2855 2742 
Q 2594 3103 2138 3103 
Q 1681 3103 1420 2742 
Q 1159 2381 1159 1747 
Q 1159 1113 1420 752 
Q 1681 391 2138 391 
Q 2594 391 2855 752 
Q 3116 1113 3116 1747 
z
" transform="scale(0.015625)"/>
       <path id="DejaVuSans-6c" d="M 603 4863 
L 1178 4863 
L 1178 0 
L 603 0 
L 603 4863 
z
" transform="scale(0.015625)"/>
       <path id="DejaVuSans-61" d="M 2194 1759 
Q 1497 1759 1228 1600 
Q 959 1441 959 1056 
Q 959 750 1161 570 
Q 1363 391 1709 391 
Q 2188 391 2477 730 
Q 2766 1069 2766 1631 
L 2766 1759 
L 2194 1759 
z
M 3341 1997 
L 3341 0 
L 2766 0 
L 2766 531 
Q 2569 213 2275 61 
Q 1981 -91 1556 -91 
Q 1019 -91 701 211 
Q 384 513 384 1019 
Q 384 1609 779 1909 
Q 1175 2209 1959 2209 
L 2766 2209 
L 2766 2266 
Q 2766 2663 2505 2880 
Q 2244 3097 1772 3097 
Q 1472 3097 1187 3025 
Q 903 2953 641 2809 
L 641 3341 
Q 956 3463 1253 3523 
Q 1550 3584 1831 3584 
Q 2591 3584 2966 3190 
Q 3341 2797 3341 1997 
z
" transform="scale(0.015625)"/>
       <path id="DejaVuSans-63" d="M 3122 3366 
L 3122 2828 
Q 2878 2963 2633 3030 
Q 2388 3097 2138 3097 
Q 1578 3097 1268 2742 
Q 959 2388 959 1747 
Q 959 1106 1268 751 
Q 1578 397 2138 397 
Q 2388 397 2633 464 
Q 2878 531 3122 666 
L 3122 134 
Q 2881 22 2623 -34 
Q 2366 -91 2075 -91 
Q 1284 -91 818 406 
Q 353 903 353 1747 
Q 353 2603 823 3093 
Q 1294 3584 2113 3584 
Q 2378 3584 2631 3529 
Q 2884 3475 3122 3366 
z
" transform="scale(0.015625)"/>
       <path id="DejaVuSans-6f" d="M 1959 3097 
Q 1497 3097 1228 2736 
Q 959 2375 959 1747 
Q 959 1119 1226 758 
Q 1494 397 1959 397 
Q 2419 397 2687 759 
Q 2956 1122 2956 1747 
Q 2956 2369 2687 2733 
Q 2419 3097 1959 3097 
z
M 1959 3584 
Q 2709 3584 3137 3096 
Q 3566 2609 3566 1747 
Q 3566 888 3137 398 
Q 2709 -91 1959 -91 
Q 1206 -91 779 398 
Q 353 888 353 1747 
Q 353 2609 779 3096 
Q 1206 3584 1959 3584 
z
" transform="scale(0.015625)"/>
       <path id="DejaVuSans-69" d="M 603 3500 
L 1178 3500 
L 1178 0 
L 603 0 
L 603 3500 
z
M 603 4863 
L 1178 4863 
L 1178 4134 
L 603 4134 
L 603 4863 
z
" transform="scale(0.015625)"/>
       <path id="DejaVuSans-74" d="M 1172 4494 
L 1172 3500 
L 2356 3500 
L 2356 3053 
L 1172 3053 
L 1172 1153 
Q 1172 725 1289 603 
Q 1406 481 1766 481 
L 2356 481 
L 2356 0 
L 1766 0 
Q 1100 0 847 248 
Q 594 497 594 1153 
L 594 3053 
L 172 3053 
L 172 3500 
L 594 3500 
L 594 4494 
L 1172 4494 
z
" transform="scale(0.015625)"/>
       <path id="DejaVuSans-72" d="M 2631 2963 
Q 2534 3019 2420 3045 
Q 2306 3072 2169 3072 
Q 1681 3072 1420 2755 
Q 1159 2438 1159 1844 
L 1159 0 
L 581 0 
L 581 3500 
L 1159 3500 
L 1159 2956 
Q 1341 3275 1631 3429 
Q 1922 3584 2338 3584 
Q 2397 3584 2469 3576 
Q 2541 3569 2628 3553 
L 2631 2963 
z
" transform="scale(0.015625)"/>
      </defs>
      <use xlink:href="#DejaVuSans-52"/>
      <use xlink:href="#DejaVuSans-65" x="64.982422"/>
      <use xlink:href="#DejaVuSans-70" x="126.505859"/>
      <use xlink:href="#DejaVuSans-6c" x="189.982422"/>
      <use xlink:href="#DejaVuSans-61" x="217.765625"/>
      <use xlink:href="#DejaVuSans-63" x="279.044922"/>
      <use xlink:href="#DejaVuSans-65" x="334.025391"/>
      <use xlink:href="#DejaVuSans-20" x="395.548828"/>
      <use xlink:href="#DejaVuSans-70" x="427.335938"/>
      <use xlink:href="#DejaVuSans-6f" x="490.8125"/>
      <use xlink:href="#DejaVuSans-69" x="551.994141"/>
      <use xlink:href="#DejaVuSans-6e" x="579.777344"/>
      <use xlink:href="#DejaVuSans-74" x="643.15625"/>
      <use xlink:href="#DejaVuSans-65" x="682.365234"/>
      <use xlink:href="#DejaVuSans-72" x="743.888672"/>
      <use xlink:href="#DejaVuSans-73" x="785.001953"/>
     </g>
    </g>
    <g id="line2d_34">
     <path d="M 144 128.854687 
L 154 128.854687 
L 164 128.854687 
" style="fill: none; stroke: #2ca02c; stroke-linecap: square"/>
     <g>
      <use xlink:href="#m75c1932571" x="154" y="128.854687" style="fill: #2ca02c; stroke: #2ca02c"/>
     </g>
    </g>
    <g id="text_20">
     <!-- Pointers -->
     <g transform="translate(172 132.354687) scale(0.1 -0.1)">
      <defs>
       <path id="DejaVuSans-50" d="M 1259 4147 
L 1259 2394 
L 2053 2394 
Q 2494 2394 2734 2622 
Q 2975 2850 2975 3272 
Q 2975 3691 2734 3919 
Q 2494 4147 2053 4147 
L 1259 4147 
z
M 628 4666 
L 2053 4666 
Q 2838 4666 3239 4311 
Q 3641 3956 3641 3272 
Q 3641 2581 3239 2228 
Q 2838 1875 2053 1875 
L 1259 1875 
L 1259 0 
L 628 0 
L 628 4666 
z
" transform="scale(0.015625)"/>
      </defs>
      <use xlink:href="#DejaVuSans-50"/>
      <use xlink:href="#DejaVuSans-6f" x="56.677734"/>
      <use xlink:href="#DejaVuSans-69" x="117.859375"/>
      <use xlink:href="#DejaVuSans-6e" x="145.642578"/>
      <use xlink:href="#DejaVuSans-74" x="209.021484"/>
      <use xlink:href="#DejaVuSans-65" x="248.230469"/>
      <use xlink:href="#DejaVuSans-72" x="309.753906"/>
      <use xlink:href="#DejaVuSans-73" x="350.867188"/>
     </g>
    </g>
   </g>
  </g>
 </g>
 <defs>
  <clipPath id="p5c7043121c">
   <rect x="135" y="86.4" width="837" height="554.4"/>
  </clipPath>
 </defs>
</svg>
